<?xml version="1.0" encoding="UTF-8"?>
<svg xmlns="http://www.w3.org/2000/svg" width="124.7mm" height="100.4mm"
     viewBox="37.63 24.78 124.74 100.44">
  <rect x="37.63" y="24.779999999999998" width="124.73999999999998" height="100.44000000000003" fill="#111111"/>
  <path id="cell_0" d="M 82.72,42.40 L 102.19,34.03 L 102.41,30.57 L 100.00,30.45 L 92.60,30.83 L 85.32,31.97 L 78.30,33.84 L 75.75,34.83 L 82.72,42.40 Z" fill="#D4A574" stroke="#1a1a1a" stroke-width="2.0"/>
  <path id="cell_1" d="M 102.19,34.03 L 120.10,44.12 L 128.92,36.72 L 128.35,36.42 L 121.70,33.84 L 114.68,31.97 L 107.40,30.83 L 102.41,30.57 L 102.19,34.03 Z" fill="#C4956A" stroke="#1a1a1a" stroke-width="2.0"/>
  <path id="cell_2" d="M 54.44,59.50 L 53.99,49.09 L 50.90,52.73 L 47.62,57.95 L 45.23,63.47 L 44.68,65.66 L 54.44,59.50 Z" fill="#B8860B" stroke="#1a1a1a" stroke-width="2.0"/>
  <path id="cell_3" d="M 54.44,59.50 L 76.30,64.86 L 83.04,59.76 L 82.72,42.40 L 75.75,34.83 L 71.65,36.42 L 65.48,39.66 L 59.91,43.50 L 55.02,47.88 L 53.99,49.09 L 54.44,59.50 Z" fill="#8B7355" stroke="#1a1a1a" stroke-width="2.0"/>
  <path id="cell_4" d="M 100.19,67.01 L 118.44,57.67 L 120.10,44.12 L 102.19,34.03 L 82.72,42.40 L 83.04,59.76 L 100.19,67.01 Z" fill="#6B4423" stroke="#1a1a1a" stroke-width="2.0"/>
  <path id="cell_5" d="M 120.10,44.12 L 118.44,57.67 L 128.90,66.99 L 148.51,59.98 L 148.13,51.58 L 144.98,47.88 L 140.09,43.50 L 134.52,39.66 L 128.92,36.72 L 120.10,44.12 Z" fill="#D4A574" stroke="#1a1a1a" stroke-width="2.0"/>
  <path id="cell_6" d="M 148.51,59.98 L 155.12,64.85 L 154.77,63.47 L 152.38,57.95 L 149.10,52.72 L 148.13,51.58 L 148.51,59.98 Z" fill="#C4956A" stroke="#1a1a1a" stroke-width="2.0"/>
  <path id="cell_7" d="M 58.03,90.59 L 70.78,85.88 L 76.30,64.86 L 54.44,59.50 L 44.68,65.66 L 43.79,69.19 L 43.30,75.00 L 43.79,80.81 L 44.48,83.56 L 58.03,90.59 Z" fill="#B8860B" stroke="#1a1a1a" stroke-width="2.0"/>
  <path id="cell_8" d="M 85.06,97.27 L 103.14,86.93 L 100.19,67.01 L 83.04,59.76 L 76.30,64.86 L 70.78,85.88 L 85.06,97.27 Z" fill="#8B7355" stroke="#1a1a1a" stroke-width="2.0"/>
  <path id="cell_9" d="M 103.14,86.93 L 116.73,94.72 L 131.47,85.26 L 128.90,66.99 L 118.44,57.67 L 100.19,67.01 L 103.14,86.93 Z" fill="#6B4423" stroke="#1a1a1a" stroke-width="2.0"/>
  <path id="cell_10" d="M 148.51,59.98 L 128.90,66.99 L 131.47,85.26 L 144.73,90.19 L 155.21,84.79 L 156.21,80.81 L 156.70,75.00 L 156.21,69.19 L 155.12,64.85 L 148.51,59.98 Z" fill="#D4A574" stroke="#1a1a1a" stroke-width="2.0"/>
  <path id="cell_11" d="M 58.03,90.59 L 44.48,83.56 L 45.23,86.53 L 47.62,92.05 L 50.90,97.28 L 55.02,102.12 L 56.62,103.55 L 58.03,90.59 Z" fill="#C4956A" stroke="#1a1a1a" stroke-width="2.0"/>
  <path id="cell_12" d="M 56.62,103.55 L 59.91,106.50 L 65.48,110.34 L 71.65,113.58 L 77.28,115.76 L 85.30,108.62 L 85.06,97.27 L 70.78,85.88 L 58.03,90.59 L 56.62,103.55 Z" fill="#B8860B" stroke="#1a1a1a" stroke-width="2.0"/>
  <path id="cell_13" d="M 85.06,97.27 L 85.30,108.62 L 102.61,118.56 L 116.78,107.46 L 116.73,94.72 L 103.14,86.93 L 85.06,97.27 Z" fill="#8B7355" stroke="#1a1a1a" stroke-width="2.0"/>
  <path id="cell_14" d="M 116.78,107.46 L 126.17,114.42 L 128.35,113.58 L 134.52,110.34 L 140.09,106.50 L 144.98,102.12 L 145.64,101.35 L 144.73,90.19 L 131.47,85.26 L 116.73,94.72 L 116.78,107.46 Z" fill="#6B4423" stroke="#1a1a1a" stroke-width="2.0"/>
  <path id="cell_15" d="M 144.73,90.19 L 145.64,101.35 L 149.10,97.28 L 152.38,92.05 L 154.77,86.53 L 155.21,84.79 L 144.73,90.19 Z" fill="#D4A574" stroke="#1a1a1a" stroke-width="2.0"/>
  <path id="cell_16" d="M 85.30,108.62 L 77.28,115.76 L 78.30,116.16 L 85.32,118.03 L 92.60,119.17 L 100.00,119.55 L 102.63,119.41 L 102.61,118.56 L 85.30,108.62 Z" fill="#C4956A" stroke="#1a1a1a" stroke-width="2.0"/>
  <path id="cell_17" d="M 116.78,107.46 L 102.61,118.56 L 102.63,119.41 L 107.40,119.17 L 114.68,118.03 L 121.70,116.16 L 126.17,114.42 L 116.78,107.46 Z" fill="#B8860B" stroke="#1a1a1a" stroke-width="2.0"/>
  <path id="vein_0" d="M 100.00,117.77 L 100.00,34.90" fill="none" stroke="#1a1a1a" stroke-width="2.4"/>
  <path id="vein_1" d="M 100.00,117.77 L 113.09,111.45 L 126.03,105.59 L 138.70,100.57 L 149.15,97.21" fill="none" stroke="#1a1a1a" stroke-width="2.4"/>
  <path id="vein_2" d="M 117.27,112.20 L 129.82,96.86" fill="none" stroke="#1a1a1a" stroke-width="2.4"/>
  <path id="vein_3" d="M 100.00,117.77 L 109.71,105.90 L 119.03,94.33 L 127.65,83.28 L 135.39,72.88 L 142.25,63.14 L 148.40,53.92 L 149.14,52.78" fill="none" stroke="#1a1a1a" stroke-width="2.4"/>
  <path id="vein_4" d="M 110.83,103.21 L 115.12,77.17" fill="none" stroke="#1a1a1a" stroke-width="2.4"/>
  <path id="vein_5" d="M 143.33,59.55 L 151.80,57.01" fill="none" stroke="#1a1a1a" stroke-width="2.4"/>
  <path id="vein_6" d="M 100.00,117.77 L 100.31,104.81 L 100.62,91.86 L 100.93,78.90 L 101.24,65.94 L 101.55,52.99 L 101.86,40.03 L 102.09,30.56" fill="none" stroke="#1a1a1a" stroke-width="2.4"/>
  <path id="vein_7" d="M 100.43,99.63 L 90.83,86.92" fill="none" stroke="#1a1a1a" stroke-width="2.4"/>
  <path id="vein_8" d="M 101.74,45.21 L 111.01,31.40" fill="none" stroke="#1a1a1a" stroke-width="2.4"/>
  <path id="vein_9" d="M 100.00,117.77 L 90.36,105.86 L 81.11,94.24 L 72.56,83.14 L 64.90,72.68 L 58.13,62.88 L 52.06,53.59 L 51.25,52.31" fill="none" stroke="#1a1a1a" stroke-width="2.4"/>
  <path id="vein_10" d="M 89.28,103.13 L 72.69,99.62" fill="none" stroke="#1a1a1a" stroke-width="2.4"/>
  <path id="vein_11" d="M 57.11,59.22 L 55.68,47.29" fill="none" stroke="#1a1a1a" stroke-width="2.4"/>
  <path id="vein_12" d="M 100.00,117.77 L 86.89,111.57 L 73.93,105.83 L 61.23,100.94 L 51.41,97.88" fill="none" stroke="#1a1a1a" stroke-width="2.4"/>
  <path id="vein_13" d="M 82.68,112.38 L 72.85,114.05" fill="none" stroke="#1a1a1a" stroke-width="2.4"/>
  <path id="boundary" d="M 156.70,75.00 L 156.21,80.81 L 154.77,86.53 L 152.38,92.05 L 149.10,97.28 L 144.98,102.12 L 140.09,106.50 L 134.52,110.34 L 128.35,113.58 L 121.70,116.16 L 114.68,118.03 L 107.40,119.17 L 100.00,119.55 L 92.60,119.17 L 85.32,118.03 L 78.30,116.16 L 71.65,113.58 L 65.48,110.34 L 59.91,106.50 L 55.02,102.12 L 50.90,97.28 L 47.62,92.05 L 45.23,86.53 L 43.79,80.81 L 43.30,75.00 L 43.79,69.19 L 45.23,63.47 L 47.62,57.95 L 50.90,52.73 L 55.02,47.88 L 59.91,43.50 L 65.48,39.66 L 71.65,36.42 L 78.30,33.84 L 85.32,31.97 L 92.60,30.83 L 100.00,30.45 L 107.40,30.83 L 114.68,31.97 L 121.70,33.84 L 128.35,36.42 L 134.52,39.66 L 140.09,43.50 L 144.98,47.88 L 149.10,52.72 L 152.38,57.95 L 154.77,63.47 L 156.21,69.19 L 156.70,75.00 Z" fill="none" stroke="#1a1a1a" stroke-width="3.6"/>
</svg>