<?xml version="1.0" encoding="UTF-8"?>
<svg xmlns="http://www.w3.org/2000/svg" width="80.8mm" height="90.2mm"
     viewBox="34.60 35.15 80.80 90.21">
  <rect x="34.60035906280722" y="35.149375" width="80.79928187438556" height="90.21375" fill="#111111"/>
  <path id="cell_0" d="M 76.03,43.29 L 75.00,39.25 L 74.18,42.47 L 76.03,43.29 Z" fill="#D4A574" stroke="#1a1a1a" stroke-width="2.0"/>
  <path id="cell_1" d="M 61.22,55.65 L 55.66,52.12 L 56.65,58.86 L 61.22,55.65 Z" fill="#C4956A" stroke="#1a1a1a" stroke-width="2.0"/>
  <path id="cell_2" d="M 74.18,42.47 L 70.17,58.27 L 70.76,58.57 L 78.90,55.39 L 78.97,54.90 L 76.03,43.29 L 74.18,42.47 Z" fill="#B8860B" stroke="#1a1a1a" stroke-width="2.0"/>
  <path id="cell_3" d="M 88.80,61.69 L 93.41,58.45 L 94.34,52.12 L 84.03,58.66 L 88.80,61.69 Z" fill="#8B7355" stroke="#1a1a1a" stroke-width="2.0"/>
  <path id="cell_4" d="M 46.26,75.39 L 51.54,72.53 L 38.70,69.54 L 40.52,71.98 L 46.26,75.39 Z" fill="#6B4423" stroke="#1a1a1a" stroke-width="2.0"/>
  <path id="cell_5" d="M 62.80,75.74 L 72.26,70.15 L 70.76,58.57 L 70.17,58.27 L 69.50,60.90 L 61.22,55.65 L 56.65,58.86 L 58.64,72.44 L 62.80,75.74 Z" fill="#D4A574" stroke="#1a1a1a" stroke-width="2.0"/>
  <path id="cell_6" d="M 70.76,58.57 L 72.26,70.15 L 81.23,73.77 L 87.40,69.39 L 88.80,61.69 L 84.03,58.66 L 80.50,60.90 L 79.14,55.55 L 78.90,55.39 L 70.76,58.57 Z" fill="#C4956A" stroke="#1a1a1a" stroke-width="2.0"/>
  <path id="cell_7" d="M 88.80,61.69 L 87.40,69.39 L 91.42,72.03 L 93.41,58.45 L 88.80,61.69 Z" fill="#B8860B" stroke="#1a1a1a" stroke-width="2.0"/>
  <path id="cell_8" d="M 109.48,71.98 L 111.30,69.54 L 107.53,70.42 L 109.48,71.98 Z" fill="#8B7355" stroke="#1a1a1a" stroke-width="2.0"/>
  <path id="cell_9" d="M 46.26,75.39 L 40.52,71.98 L 46.23,79.64 L 46.26,75.39 Z" fill="#6B4423" stroke="#1a1a1a" stroke-width="2.0"/>
  <path id="cell_10" d="M 46.26,75.39 L 46.23,79.64 L 52.47,88.02 L 52.22,88.17 L 54.65,89.59 L 63.15,84.27 L 62.80,75.74 L 58.64,72.44 L 58.90,74.24 L 51.54,72.53 L 46.26,75.39 Z" fill="#D4A574" stroke="#1a1a1a" stroke-width="2.0"/>
  <path id="cell_11" d="M 72.26,70.15 L 62.80,75.74 L 63.15,84.27 L 70.90,88.88 L 80.84,85.08 L 81.23,73.77 L 72.26,70.15 Z" fill="#C4956A" stroke="#1a1a1a" stroke-width="2.0"/>
  <path id="cell_12" d="M 87.40,69.39 L 81.23,73.77 L 80.84,85.08 L 88.74,90.62 L 96.97,86.26 L 96.21,75.17 L 93.83,73.61 L 91.10,74.24 L 91.42,72.03 L 87.40,69.39 Z" fill="#B8860B" stroke="#1a1a1a" stroke-width="2.0"/>
  <path id="cell_13" d="M 96.21,75.17 L 96.97,86.26 L 98.51,86.70 L 109.48,71.98 L 107.53,70.42 L 103.95,71.25 L 96.21,75.17 Z" fill="#8B7355" stroke="#1a1a1a" stroke-width="2.0"/>
  <path id="cell_14" d="M 53.85,98.47 L 54.65,89.59 L 52.22,88.17 L 42.10,94.20 L 52.49,99.41 L 53.85,98.47 Z" fill="#6B4423" stroke="#1a1a1a" stroke-width="2.0"/>
  <path id="cell_15" d="M 54.65,89.59 L 53.85,98.47 L 63.84,104.09 L 70.71,100.81 L 70.90,88.88 L 63.15,84.27 L 54.65,89.59 Z" fill="#D4A574" stroke="#1a1a1a" stroke-width="2.0"/>
  <path id="cell_16" d="M 88.74,90.62 L 80.84,85.08 L 70.90,88.88 L 70.71,100.81 L 78.42,104.99 L 88.37,99.09 L 88.74,90.62 Z" fill="#C4956A" stroke="#1a1a1a" stroke-width="2.0"/>
  <path id="cell_17" d="M 104.78,92.34 L 97.53,88.02 L 98.51,86.70 L 96.97,86.26 L 88.74,90.62 L 88.37,99.09 L 92.40,102.49 L 93.16,101.59 L 105.22,95.54 L 104.78,92.34 Z" fill="#B8860B" stroke="#1a1a1a" stroke-width="2.0"/>
  <path id="cell_18" d="M 105.22,95.54 L 107.90,94.20 L 104.78,92.34 L 105.22,95.54 Z" fill="#8B7355" stroke="#1a1a1a" stroke-width="2.0"/>
  <path id="cell_19" d="M 63.84,104.09 L 53.85,98.47 L 52.49,99.41 L 56.84,101.59 L 61.85,107.59 L 63.16,108.15 L 63.84,104.09 Z" fill="#6B4423" stroke="#1a1a1a" stroke-width="2.0"/>
  <path id="cell_20" d="M 78.42,104.99 L 70.71,100.81 L 63.84,104.09 L 63.16,108.15 L 70.84,111.42 L 73.37,117.41 L 77.83,114.56 L 78.87,112.10 L 78.42,104.99 Z" fill="#D4A574" stroke="#1a1a1a" stroke-width="2.0"/>
  <path id="cell_21" d="M 88.37,99.09 L 83.04,102.25 L 86.60,108.25 L 88.15,107.59 L 92.40,102.49 L 88.37,99.09 Z" fill="#C4956A" stroke="#1a1a1a" stroke-width="2.0"/>
  <path id="cell_22" d="M 83.04,102.25 L 80.09,103.99 L 83.42,109.60 L 86.60,108.25 L 83.04,102.25 Z" fill="#B8860B" stroke="#1a1a1a" stroke-width="2.0"/>
  <path id="cell_23" d="M 80.09,103.99 L 78.42,104.99 L 78.67,108.91 L 81.95,107.12 L 80.09,103.99 Z" fill="#8B7355" stroke="#1a1a1a" stroke-width="2.0"/>
  <path id="cell_24" d="M 78.67,108.91 L 78.87,112.10 L 79.16,111.42 L 83.42,109.60 L 81.95,107.12 L 78.67,108.91 Z" fill="#6B4423" stroke="#1a1a1a" stroke-width="2.0"/>
  <path id="cell_25" d="M 73.37,117.41 L 75.00,121.26 L 77.83,114.56 L 73.37,117.41 Z" fill="#D4A574" stroke="#1a1a1a" stroke-width="2.0"/>
  <path id="vein_0" d="M 75.00,119.62 L 75.00,43.35" fill="none" stroke="#1a1a1a" stroke-width="2.4"/>
  <path id="vein_1" d="M 75.00,119.62 L 75.87,119.21" fill="none" stroke="#1a1a1a" stroke-width="2.4"/>
  <path id="vein_2" d="M 75.00,119.62 L 76.13,118.59" fill="none" stroke="#1a1a1a" stroke-width="2.4"/>
  <path id="vein_3" d="M 96.90,99.71 L 98.41,98.35 L 105.04,92.49" fill="none" stroke="#1a1a1a" stroke-width="2.4"/>
  <path id="vein_4" d="M 85.45,108.74 L 89.43,94.60" fill="none" stroke="#1a1a1a" stroke-width="2.4"/>
  <path id="vein_5" d="M 104.50,93.56 L 104.72,92.30" fill="none" stroke="#1a1a1a" stroke-width="2.4"/>
  <path id="vein_6" d="M 75.00,119.62 L 77.54,115.24" fill="none" stroke="#1a1a1a" stroke-width="2.4"/>
  <path id="vein_7" d="M 79.96,111.08 L 80.32,110.44 L 85.36,101.39 L 89.89,92.57 L 93.79,84.05 L 97.04,75.81 L 98.14,72.60" fill="none" stroke="#1a1a1a" stroke-width="2.4"/>
  <path id="vein_8" d="M 80.45,107.68 L 76.88,93.10" fill="none" stroke="#1a1a1a" stroke-width="2.4"/>
  <path id="vein_9" d="M 85.90,95.75 L 98.66,88.80" fill="none" stroke="#1a1a1a" stroke-width="2.4"/>
  <path id="vein_10" d="M 91.34,83.81 L 88.38,64.79" fill="none" stroke="#1a1a1a" stroke-width="2.4"/>
  <path id="vein_11" d="M 75.00,119.62 L 75.03,110.25 L 75.07,100.88 L 75.10,91.50 L 75.13,82.13 L 75.17,72.76 L 75.20,63.39 L 75.24,54.01" fill="none" stroke="#1a1a1a" stroke-width="2.4"/>
  <path id="vein_12" d="M 75.05,106.50 L 62.42,91.45" fill="none" stroke="#1a1a1a" stroke-width="2.4"/>
  <path id="vein_13" d="M 75.09,93.38 L 85.16,80.59" fill="none" stroke="#1a1a1a" stroke-width="2.4"/>
  <path id="vein_14" d="M 75.14,80.26 L 68.29,67.55" fill="none" stroke="#1a1a1a" stroke-width="2.4"/>
  <path id="vein_15" d="M 75.19,67.13 L 79.75,57.98" fill="none" stroke="#1a1a1a" stroke-width="2.4"/>
  <path id="vein_16" d="M 75.00,119.62 L 72.73,115.88" fill="none" stroke="#1a1a1a" stroke-width="2.4"/>
  <path id="vein_17" d="M 69.73,110.94 L 69.47,110.51 L 64.22,101.54 L 59.47,92.81 L 55.35,84.39 L 51.87,76.27 L 50.34,72.25" fill="none" stroke="#1a1a1a" stroke-width="2.4"/>
  <path id="vein_18" d="M 69.24,107.83 L 55.86,99.80" fill="none" stroke="#1a1a1a" stroke-width="2.4"/>
  <path id="vein_19" d="M 63.47,96.05 L 64.43,77.92" fill="none" stroke="#1a1a1a" stroke-width="2.4"/>
  <path id="vein_20" d="M 57.71,84.26 L 46.05,79.40" fill="none" stroke="#1a1a1a" stroke-width="2.4"/>
  <path id="vein_21" d="M 75.00,119.62 L 73.80,118.41" fill="none" stroke="#1a1a1a" stroke-width="2.4"/>
  <path id="vein_22" d="M 63.91,108.47 L 59.78,104.32 L 52.68,97.17 L 46.89,91.34" fill="none" stroke="#1a1a1a" stroke-width="2.4"/>
  <path id="vein_23" d="M 56.51,101.00 L 51.63,82.84" fill="none" stroke="#1a1a1a" stroke-width="2.4"/>
  <path id="vein_24" d="M 47.27,91.68 L 46.41,91.63" fill="none" stroke="#1a1a1a" stroke-width="2.4"/>
  <path id="vein_25" d="M 75.00,119.62 L 74.10,119.14" fill="none" stroke="#1a1a1a" stroke-width="2.4"/>
  <path id="boundary" d="M 75.00,39.25 L 80.50,60.90 L 94.34,52.12 L 91.10,74.24 L 111.30,69.54 L 97.53,88.02 L 107.90,94.20 L 93.16,101.59 L 88.15,107.59 L 79.16,111.42 L 75.00,121.26 L 70.84,111.42 L 61.85,107.59 L 56.84,101.59 L 42.10,94.20 L 52.47,88.02 L 38.70,69.54 L 58.90,74.24 L 55.66,52.12 L 69.50,60.90 L 75.00,39.25 Z" fill="none" stroke="#1a1a1a" stroke-width="3.6"/>
</svg>