<?xml version="1.0" encoding="UTF-8"?>
<svg xmlns="http://www.w3.org/2000/svg" 
     width="200mm" height="200mm" 
     viewBox="0 0 200 200">
  <rect width="100%" height="100%" fill="#1a1a1a"/>
  <path id="cell_0" d="M 46.24,45.66 L 49.75,59.50 L 24.76,51.60 L 24.67,56.70 L 39.37,79.42 L 53.31,77.46 L 62.85,42.60 L 62.48,42.23 L 46.24,45.66 Z" fill="#D4A574" stroke="#1a1a1a" stroke-width="2"/>
  <path id="cell_1" d="M 161.87,107.11 L 163.26,107.99 L 190.25,90.00 L 173.71,84.49 L 161.87,107.11 Z" fill="#C4956A" stroke="#1a1a1a" stroke-width="2"/>
  <path id="cell_2" d="M 157.95,64.68 L 119.82,62.26 L 142.36,112.51 L 158.97,108.50 L 161.87,107.11 L 173.71,84.49 L 160.25,80.00 L 165.49,71.90 L 157.95,64.68 Z" fill="#B8860B" stroke="#1a1a1a" stroke-width="2"/>
  <path id="cell_3" d="M 24.76,51.60 L 23.54,51.21 L 22.90,51.63 L 23.58,52.68 L 24.76,51.91 L 24.76,51.60 Z" fill="#8B7355" stroke="#1a1a1a" stroke-width="2"/>
  <path id="cell_4" d="M 22.90,51.63 L 21.84,52.32 L 22.51,53.36 L 23.58,52.68 L 22.90,51.63 Z" fill="#6B4423" stroke="#1a1a1a" stroke-width="2"/>
  <path id="cell_5" d="M 23.54,51.21 L 22.12,50.76 L 21.70,52.10 L 21.84,52.32 L 23.54,51.21 Z" fill="#D4A574" stroke="#1a1a1a" stroke-width="2"/>
  <path id="cell_6" d="M 22.12,50.76 L 20.50,50.25 L 21.70,52.10 L 22.12,50.76 Z" fill="#C4956A" stroke="#1a1a1a" stroke-width="2"/>
  <path id="cell_7" d="M 22.51,53.36 L 23.23,54.47 L 24.18,53.86 L 23.46,52.75 L 22.51,53.36 Z" fill="#B8860B" stroke="#1a1a1a" stroke-width="2"/>
  <path id="cell_8" d="M 24.18,53.86 L 24.73,53.51 L 24.76,51.91 L 23.46,52.75 L 24.18,53.86 Z" fill="#8B7355" stroke="#1a1a1a" stroke-width="2"/>
  <path id="cell_9" d="M 23.23,54.47 L 23.71,55.21 L 24.71,54.57 L 24.73,53.51 L 23.23,54.47 Z" fill="#6B4423" stroke="#1a1a1a" stroke-width="2"/>
  <path id="cell_10" d="M 23.71,55.21 L 24.67,56.70 L 24.71,54.57 L 23.71,55.21 Z" fill="#D4A574" stroke="#1a1a1a" stroke-width="2"/>
  <path id="cell_11" d="M 74.96,29.92 L 70.00,49.75 L 62.85,42.60 L 53.31,77.46 L 63.13,101.96 L 100.91,83.09 L 103.92,78.49 L 114.86,59.51 L 103.10,35.09 L 100.00,39.75 L 85.97,18.70 L 74.96,29.92 Z" fill="#C4956A" stroke="#1a1a1a" stroke-width="2"/>
  <path id="cell_12" d="M 94.87,151.05 L 92.67,131.97 L 60.69,110.72 L 50.21,117.64 L 45.87,127.16 L 43.93,138.06 L 49.75,140.00 L 47.67,146.47 L 94.87,151.05 Z" fill="#B8860B" stroke="#1a1a1a" stroke-width="2"/>
  <path id="cell_13" d="M 165.49,71.90 L 171.26,62.99 L 162.50,57.33 L 157.95,64.68 L 165.49,71.90 Z" fill="#8B7355" stroke="#1a1a1a" stroke-width="2"/>
  <path id="cell_14" d="M 171.26,62.99 L 174.07,58.64 L 167.14,54.16 L 163.80,55.21 L 162.50,57.33 L 171.26,62.99 Z" fill="#6B4423" stroke="#1a1a1a" stroke-width="2"/>
  <path id="cell_15" d="M 174.07,58.64 L 174.64,57.75 L 172.93,52.33 L 167.14,54.16 L 174.07,58.64 Z" fill="#D4A574" stroke="#1a1a1a" stroke-width="2"/>
  <path id="cell_16" d="M 174.64,57.75 L 176.92,54.24 L 173.63,52.11 L 172.93,52.33 L 174.64,57.75 Z" fill="#C4956A" stroke="#1a1a1a" stroke-width="2"/>
  <path id="cell_17" d="M 176.92,54.24 L 177.19,53.82 L 176.38,51.24 L 173.63,52.11 L 176.92,54.24 Z" fill="#B8860B" stroke="#1a1a1a" stroke-width="2"/>
  <path id="cell_18" d="M 177.19,53.82 L 179.50,50.25 L 176.38,51.24 L 177.19,53.82 Z" fill="#8B7355" stroke="#1a1a1a" stroke-width="2"/>
  <path id="cell_19" d="M 103.92,78.49 L 100.91,83.09 L 103.73,119.77 L 124.95,118.36 L 103.92,78.49 Z" fill="#6B4423" stroke="#1a1a1a" stroke-width="2"/>
  <path id="cell_20" d="M 21.89,85.95 L 9.75,90.00 L 14.66,93.27 L 23.20,91.13 L 21.89,85.95 Z" fill="#D4A574" stroke="#1a1a1a" stroke-width="2"/>
  <path id="cell_21" d="M 14.66,93.27 L 18.29,95.70 L 23.98,94.27 L 23.20,91.13 L 14.66,93.27 Z" fill="#C4956A" stroke="#1a1a1a" stroke-width="2"/>
  <path id="cell_22" d="M 18.29,95.70 L 20.72,97.31 L 20.87,97.27 L 20.35,95.18 L 18.29,95.70 Z" fill="#B8860B" stroke="#1a1a1a" stroke-width="2"/>
  <path id="cell_23" d="M 20.87,97.27 L 22.11,96.96 L 21.58,94.87 L 20.35,95.18 L 20.87,97.27 Z" fill="#8B7355" stroke="#1a1a1a" stroke-width="2"/>
  <path id="cell_24" d="M 22.11,96.96 L 23.31,96.66 L 22.78,94.57 L 21.58,94.87 L 22.11,96.96 Z" fill="#6B4423" stroke="#1a1a1a" stroke-width="2"/>
  <path id="cell_25" d="M 23.31,96.66 L 24.51,96.36 L 23.98,94.27 L 22.78,94.57 L 23.31,96.66 Z" fill="#D4A574" stroke="#1a1a1a" stroke-width="2"/>
  <path id="cell_26" d="M 20.72,97.31 L 23.06,98.87 L 23.63,98.02 L 22.05,96.98 L 20.72,97.31 Z" fill="#C4956A" stroke="#1a1a1a" stroke-width="2"/>
  <path id="cell_27" d="M 23.63,98.02 L 24.57,96.61 L 24.51,96.36 L 22.05,96.98 L 23.63,98.02 Z" fill="#B8860B" stroke="#1a1a1a" stroke-width="2"/>
  <path id="cell_28" d="M 23.06,98.87 L 23.89,99.43 L 24.90,97.92 L 24.57,96.61 L 23.06,98.87 Z" fill="#8B7355" stroke="#1a1a1a" stroke-width="2"/>
  <path id="cell_29" d="M 23.89,99.43 L 25.56,100.54 L 24.90,97.92 L 23.89,99.43 Z" fill="#6B4423" stroke="#1a1a1a" stroke-width="2"/>
  <path id="cell_30" d="M 114.86,59.51 L 119.82,62.26 L 125.66,62.63 L 129.59,48.11 L 120.00,9.75 L 103.10,35.09 L 114.86,59.51 Z" fill="#D4A574" stroke="#1a1a1a" stroke-width="2"/>
  <path id="cell_31" d="M 125.66,62.63 L 141.79,63.65 L 142.70,49.30 L 131.20,48.57 L 130.00,49.75 L 129.68,48.48 L 129.50,48.46 L 125.66,62.63 Z" fill="#C4956A" stroke="#1a1a1a" stroke-width="2"/>
  <path id="cell_32" d="M 141.79,63.65 L 149.65,64.15 L 150.56,49.80 L 142.70,49.30 L 141.79,63.65 Z" fill="#B8860B" stroke="#1a1a1a" stroke-width="2"/>
  <path id="cell_33" d="M 149.65,64.15 L 157.95,64.68 L 160.84,60.00 L 150.71,59.36 L 150.25,59.50 L 150.29,59.33 L 149.95,59.31 L 149.65,64.15 Z" fill="#8B7355" stroke="#1a1a1a" stroke-width="2"/>
  <path id="cell_34" d="M 160.84,60.00 L 163.80,55.21 L 150.71,59.36 L 160.84,60.00 Z" fill="#6B4423" stroke="#1a1a1a" stroke-width="2"/>
  <path id="cell_35" d="M 150.29,59.33 L 152.58,49.93 L 150.56,49.80 L 149.95,59.31 L 150.29,59.33 Z" fill="#D4A574" stroke="#1a1a1a" stroke-width="2"/>
  <path id="cell_36" d="M 152.58,49.93 L 153.64,45.57 L 144.11,35.87 L 131.20,48.57 L 152.58,49.93 Z" fill="#C4956A" stroke="#1a1a1a" stroke-width="2"/>
  <path id="cell_37" d="M 153.64,45.57 L 155.68,37.21 L 149.33,30.75 L 144.11,35.87 L 153.64,45.57 Z" fill="#B8860B" stroke="#1a1a1a" stroke-width="2"/>
  <path id="cell_38" d="M 155.68,37.21 L 157.41,30.09 L 151.47,28.65 L 149.33,30.75 L 155.68,37.21 Z" fill="#8B7355" stroke="#1a1a1a" stroke-width="2"/>
  <path id="cell_39" d="M 157.41,30.09 L 159.75,20.50 L 151.47,28.65 L 157.41,30.09 Z" fill="#6B4423" stroke="#1a1a1a" stroke-width="2"/>
  <path id="cell_40" d="M 100.91,83.09 L 63.13,101.96 L 60.69,110.72 L 92.67,131.97 L 103.73,119.77 L 100.91,83.09 Z" fill="#D4A574" stroke="#1a1a1a" stroke-width="2"/>
  <path id="cell_41" d="M 144.79,159.66 L 149.78,162.94 L 156.65,159.86 L 155.09,155.04 L 144.79,159.66 Z" fill="#C4956A" stroke="#1a1a1a" stroke-width="2"/>
  <path id="cell_42" d="M 149.78,162.94 L 154.23,165.87 L 157.15,161.43 L 156.65,159.86 L 149.78,162.94 Z" fill="#B8860B" stroke="#1a1a1a" stroke-width="2"/>
  <path id="cell_43" d="M 154.23,165.87 L 156.07,167.08 L 156.69,166.14 L 154.84,164.93 L 154.23,165.87 Z" fill="#8B7355" stroke="#1a1a1a" stroke-width="2"/>
  <path id="cell_44" d="M 156.69,166.14 L 157.30,165.20 L 155.46,163.99 L 154.84,164.93 L 156.69,166.14 Z" fill="#6B4423" stroke="#1a1a1a" stroke-width="2"/>
  <path id="cell_45" d="M 157.30,165.20 L 157.94,164.24 L 156.10,163.03 L 155.46,163.99 L 157.30,165.20 Z" fill="#D4A574" stroke="#1a1a1a" stroke-width="2"/>
  <path id="cell_46" d="M 157.94,164.24 L 158.02,164.12 L 157.15,161.43 L 156.10,163.03 L 157.94,164.24 Z" fill="#C4956A" stroke="#1a1a1a" stroke-width="2"/>
  <path id="cell_47" d="M 156.07,167.08 L 156.50,167.36 L 157.85,166.93 L 157.30,165.21 L 156.07,167.08 Z" fill="#B8860B" stroke="#1a1a1a" stroke-width="2"/>
  <path id="cell_48" d="M 157.85,166.93 L 158.82,166.62 L 158.02,164.12 L 157.30,165.21 L 157.85,166.93 Z" fill="#8B7355" stroke="#1a1a1a" stroke-width="2"/>
  <path id="cell_49" d="M 156.50,167.36 L 158.01,168.35 L 158.93,166.96 L 158.82,166.62 L 156.50,167.36 Z" fill="#6B4423" stroke="#1a1a1a" stroke-width="2"/>
  <path id="cell_50" d="M 158.01,168.35 L 159.75,169.50 L 158.93,166.96 L 158.01,168.35 Z" fill="#D4A574" stroke="#1a1a1a" stroke-width="2"/>
  <path id="cell_51" d="M 39.07,110.68 L 25.35,124.40 L 45.87,127.16 L 50.21,117.64 L 39.07,110.68 Z" fill="#C4956A" stroke="#1a1a1a" stroke-width="2"/>
  <path id="cell_52" d="M 161.87,107.11 L 158.97,108.50 L 167.12,134.38 L 180.25,130.00 L 160.25,110.00 L 163.26,107.99 L 161.87,107.11 Z" fill="#B8860B" stroke="#1a1a1a" stroke-width="2"/>
  <path id="cell_53" d="M 114.86,59.51 L 103.92,78.49 L 124.95,118.36 L 138.43,118.84 L 142.36,112.51 L 119.82,62.26 L 114.86,59.51 Z" fill="#8B7355" stroke="#1a1a1a" stroke-width="2"/>
  <path id="cell_54" d="M 99.54,166.62 L 99.55,167.37 L 100.36,167.39 L 100.39,165.68 L 99.54,166.62 Z" fill="#6B4423" stroke="#1a1a1a" stroke-width="2"/>
  <path id="cell_55" d="M 99.55,167.37 L 99.56,168.66 L 100.33,168.67 L 100.36,167.39 L 99.55,167.37 Z" fill="#D4A574" stroke="#1a1a1a" stroke-width="2"/>
  <path id="cell_56" d="M 99.56,168.66 L 99.57,171.33 L 100.28,171.34 L 100.33,168.67 L 99.56,168.66 Z" fill="#C4956A" stroke="#1a1a1a" stroke-width="2"/>
  <path id="cell_57" d="M 99.57,171.33 L 99.59,174.18 L 100.23,174.19 L 100.28,171.34 L 99.57,171.33 Z" fill="#B8860B" stroke="#1a1a1a" stroke-width="2"/>
  <path id="cell_58" d="M 99.59,174.18 L 99.61,177.26 L 100.17,177.27 L 100.23,174.19 L 99.59,174.18 Z" fill="#8B7355" stroke="#1a1a1a" stroke-width="2"/>
  <path id="cell_59" d="M 99.61,177.26 L 99.63,180.72 L 100.10,180.73 L 100.17,177.27 L 99.61,177.26 Z" fill="#6B4423" stroke="#1a1a1a" stroke-width="2"/>
  <path id="cell_60" d="M 99.63,180.72 L 99.66,184.67 L 100.03,184.68 L 100.10,180.73 L 99.63,180.72 Z" fill="#D4A574" stroke="#1a1a1a" stroke-width="2"/>
  <path id="cell_61" d="M 99.66,184.67 L 99.69,189.62 L 99.94,189.62 L 100.03,184.68 L 99.66,184.67 Z" fill="#C4956A" stroke="#1a1a1a" stroke-width="2"/>
  <path id="cell_62" d="M 99.69,189.62 L 99.75,199.50 L 99.94,189.62 L 99.69,189.62 Z" fill="#B8860B" stroke="#1a1a1a" stroke-width="2"/>
  <path id="cell_63" d="M 50.21,117.64 L 60.69,110.72 L 63.13,101.96 L 53.31,77.46 L 39.37,79.42 L 39.75,80.00 L 21.89,85.95 L 25.56,100.54 L 39.75,110.00 L 39.07,110.68 L 50.21,117.64 Z" fill="#8B7355" stroke="#1a1a1a" stroke-width="2"/>
  <path id="cell_64" d="M 158.97,108.50 L 142.36,112.51 L 138.43,118.84 L 141.47,157.47 L 144.79,159.66 L 155.09,155.04 L 150.25,140.00 L 167.12,134.38 L 158.97,108.50 Z" fill="#6B4423" stroke="#1a1a1a" stroke-width="2"/>
  <path id="cell_65" d="M 138.43,118.84 L 124.95,118.36 L 115.59,118.98 L 118.35,154.10 L 130.50,150.25 L 141.47,157.47 L 138.43,118.84 Z" fill="#D4A574" stroke="#1a1a1a" stroke-width="2"/>
  <path id="cell_66" d="M 115.59,118.98 L 103.73,119.77 L 92.67,131.97 L 93.65,140.45 L 117.14,138.61 L 115.59,118.98 Z" fill="#C4956A" stroke="#1a1a1a" stroke-width="2"/>
  <path id="cell_67" d="M 93.65,140.45 L 94.69,149.54 L 106.11,148.64 L 105.40,139.53 L 93.65,140.45 Z" fill="#B8860B" stroke="#1a1a1a" stroke-width="2"/>
  <path id="cell_68" d="M 94.69,149.54 L 94.87,151.05 L 96.43,154.23 L 106.49,153.44 L 106.11,148.64 L 94.69,149.54 Z" fill="#8B7355" stroke="#1a1a1a" stroke-width="2"/>
  <path id="cell_69" d="M 96.43,154.23 L 99.09,159.62 L 99.50,159.75 L 99.50,160.47 L 100.45,162.39 L 100.50,159.75 L 106.83,157.75 L 106.49,153.44 L 96.43,154.23 Z" fill="#6B4423" stroke="#1a1a1a" stroke-width="2"/>
  <path id="cell_70" d="M 106.83,157.75 L 118.35,154.10 L 117.14,138.61 L 105.40,139.53 L 106.83,157.75 Z" fill="#D4A574" stroke="#1a1a1a" stroke-width="2"/>
  <path id="cell_71" d="M 45.87,127.16 L 25.35,124.40 L 19.75,130.00 L 43.93,138.06 L 45.87,127.16 Z" fill="#C4956A" stroke="#1a1a1a" stroke-width="2"/>
</svg>