<?xml version="1.0" encoding="UTF-8"?>
<svg xmlns="http://www.w3.org/2000/svg" width="166.3mm" height="133.9mm"
     viewBox="16.84 33.04 166.32 133.92">
  <rect x="16.840000000000007" y="33.03999999999999" width="166.32" height="133.92000000000002" fill="#111111"/>
  <path id="cell_0" d="M 83.70,57.16 L 115.64,44.47 L 115.67,42.01 L 109.87,41.11 L 100.00,40.60 L 90.13,41.11 L 80.43,42.62 L 71.07,45.12 L 70.75,45.24 L 83.70,57.16 Z" fill="#D4A574" stroke="#1a1a1a" stroke-width="2.0"/>
  <path id="cell_1" d="M 144.19,51.91 L 137.80,48.56 L 128.93,45.12 L 119.57,42.62 L 115.67,42.01 L 115.64,44.47 L 130.72,59.78 L 144.19,51.91 Z" fill="#C4956A" stroke="#1a1a1a" stroke-width="2.0"/>
  <path id="cell_2" d="M 42.06,88.56 L 43.79,60.46 L 40.02,63.84 L 34.53,70.30 L 30.15,77.27 L 26.98,84.63 L 25.05,92.25 L 24.98,93.03 L 42.06,88.56 Z" fill="#B8860B" stroke="#1a1a1a" stroke-width="2.0"/>
  <path id="cell_3" d="M 42.06,88.56 L 64.11,98.84 L 83.63,83.52 L 83.70,57.16 L 70.75,45.24 L 62.20,48.56 L 53.98,52.87 L 46.54,58.00 L 43.79,60.46 L 42.06,88.56 Z" fill="#8B7355" stroke="#1a1a1a" stroke-width="2.0"/>
  <path id="cell_4" d="M 112.33,91.88 L 131.88,78.80 L 130.72,59.78 L 115.64,44.47 L 83.70,57.16 L 83.63,83.52 L 112.33,91.88 Z" fill="#6B4423" stroke="#1a1a1a" stroke-width="2.0"/>
  <path id="cell_5" d="M 130.72,59.78 L 131.88,78.80 L 157.42,93.53 L 173.63,87.02 L 173.02,84.63 L 169.85,77.27 L 165.47,70.30 L 159.98,63.84 L 153.46,58.00 L 146.02,52.87 L 144.19,51.91 L 130.72,59.78 Z" fill="#D4A574" stroke="#1a1a1a" stroke-width="2.0"/>
  <path id="cell_6" d="M 45.83,138.71 L 67.63,122.05 L 64.11,98.84 L 42.06,88.56 L 24.98,93.03 L 24.40,100.00 L 25.05,107.75 L 26.98,115.37 L 30.15,122.73 L 34.53,129.70 L 38.55,134.42 L 45.83,138.71 Z" fill="#C4956A" stroke="#1a1a1a" stroke-width="2.0"/>
  <path id="cell_7" d="M 64.11,98.84 L 67.63,122.05 L 87.92,135.77 L 113.53,124.70 L 112.33,91.88 L 83.63,83.52 L 64.11,98.84 Z" fill="#B8860B" stroke="#1a1a1a" stroke-width="2.0"/>
  <path id="cell_8" d="M 113.53,124.70 L 130.97,132.97 L 153.13,118.32 L 157.42,93.53 L 131.88,78.80 L 112.33,91.88 L 113.53,124.70 Z" fill="#8B7355" stroke="#1a1a1a" stroke-width="2.0"/>
  <path id="cell_9" d="M 157.42,93.53 L 153.13,118.32 L 166.11,128.68 L 169.85,122.73 L 173.02,115.37 L 174.95,107.75 L 175.60,100.00 L 174.95,92.25 L 173.63,87.02 L 157.42,93.53 Z" fill="#6B4423" stroke="#1a1a1a" stroke-width="2.0"/>
  <path id="cell_10" d="M 45.83,138.71 L 38.55,134.42 L 40.02,136.16 L 45.38,140.96 L 45.83,138.71 Z" fill="#D4A574" stroke="#1a1a1a" stroke-width="2.0"/>
  <path id="cell_11" d="M 88.50,157.76 L 87.92,135.77 L 67.63,122.05 L 45.83,138.71 L 45.38,140.96 L 46.54,142.00 L 53.98,147.13 L 62.20,151.44 L 71.07,154.88 L 80.43,157.38 L 87.62,158.50 L 88.50,157.76 Z" fill="#C4956A" stroke="#1a1a1a" stroke-width="2.0"/>
  <path id="cell_12" d="M 130.97,132.97 L 113.53,124.70 L 87.92,135.77 L 88.50,157.76 L 90.23,158.90 L 100.00,159.40 L 109.87,158.89 L 119.57,157.38 L 128.93,154.88 L 134.62,152.67 L 130.97,132.97 Z" fill="#B8860B" stroke="#1a1a1a" stroke-width="2.0"/>
  <path id="cell_13" d="M 153.13,118.32 L 130.97,132.97 L 134.62,152.67 L 137.80,151.44 L 146.02,147.13 L 153.46,142.00 L 159.98,136.16 L 165.47,129.70 L 166.11,128.68 L 153.13,118.32 Z" fill="#8B7355" stroke="#1a1a1a" stroke-width="2.0"/>
  <path id="cell_14" d="M 88.50,157.76 L 87.62,158.50 L 90.13,158.89 L 90.23,158.90 L 88.50,157.76 Z" fill="#6B4423" stroke="#1a1a1a" stroke-width="2.0"/>
  <path id="vein_0" d="M 100.00,157.02 L 100.00,46.54" fill="none" stroke="#1a1a1a" stroke-width="2.4"/>
  <path id="vein_1" d="M 100.00,157.02 L 117.29,147.67 L 134.33,138.92 L 150.96,131.25 L 167.05,124.95 L 168.80,124.39" fill="none" stroke="#1a1a1a" stroke-width="2.4"/>
  <path id="vein_2" d="M 122.53,148.20 L 142.43,119.96" fill="none" stroke="#1a1a1a" stroke-width="2.4"/>
  <path id="vein_3" d="M 100.00,157.02 L 110.50,140.05 L 120.43,123.36 L 129.29,107.18 L 136.85,91.64 L 143.09,76.73 L 148.28,62.34 L 150.39,55.88" fill="none" stroke="#1a1a1a" stroke-width="2.4"/>
  <path id="vein_4" d="M 110.58,135.27 L 102.45,106.97" fill="none" stroke="#1a1a1a" stroke-width="2.4"/>
  <path id="vein_5" d="M 142.31,69.99 L 156.85,61.04" fill="none" stroke="#1a1a1a" stroke-width="2.4"/>
  <path id="vein_6" d="M 100.00,157.02 L 89.82,139.95 L 80.23,123.14 L 71.71,106.82 L 64.51,91.11 L 58.64,76.01 L 53.83,61.40 L 51.78,54.39" fill="none" stroke="#1a1a1a" stroke-width="2.4"/>
  <path id="vein_7" d="M 89.92,135.03 L 63.45,113.43" fill="none" stroke="#1a1a1a" stroke-width="2.4"/>
  <path id="vein_8" d="M 59.70,69.05 L 60.57,49.41" fill="none" stroke="#1a1a1a" stroke-width="2.4"/>
  <path id="vein_9" d="M 100.00,157.02 L 82.52,148.80 L 65.23,141.19 L 48.29,134.70 L 35.40,130.72" fill="none" stroke="#1a1a1a" stroke-width="2.4"/>
  <path id="vein_10" d="M 76.88,149.89 L 65.38,152.67" fill="none" stroke="#1a1a1a" stroke-width="2.4"/>
  <path id="boundary" d="M 175.60,100.00 L 174.95,107.75 L 173.02,115.37 L 169.85,122.73 L 165.47,129.70 L 159.98,136.16 L 153.46,142.00 L 146.02,147.13 L 137.80,151.44 L 128.93,154.88 L 119.57,157.38 L 109.87,158.89 L 100.00,159.40 L 90.13,158.89 L 80.43,157.38 L 71.07,154.88 L 62.20,151.44 L 53.98,147.13 L 46.54,142.00 L 40.02,136.16 L 34.53,129.70 L 30.15,122.73 L 26.98,115.37 L 25.05,107.75 L 24.40,100.00 L 25.05,92.25 L 26.98,84.63 L 30.15,77.27 L 34.53,70.30 L 40.02,63.84 L 46.54,58.00 L 53.98,52.87 L 62.20,48.56 L 71.07,45.12 L 80.43,42.62 L 90.13,41.11 L 100.00,40.60 L 109.87,41.11 L 119.57,42.62 L 128.93,45.12 L 137.80,48.56 L 146.02,52.87 L 153.46,58.00 L 159.98,63.84 L 165.47,70.30 L 169.85,77.27 L 173.02,84.63 L 174.95,92.25 L 175.60,100.00 Z" fill="none" stroke="#1a1a1a" stroke-width="3.6"/>
</svg>