<svg xmlns="http://www.w3.org/2000/svg" viewBox="0 0 100 120" width="400" height="480">
  <rect width="100" height="120" fill="white"/>
  <!-- Simple maple leaf using straight lines -->
  <polygon fill="black" points="
    50,115
    50,90
    35,85
    20,95
    25,80
    10,75
    20,65
    5,55
    20,50
    10,35
    25,40
    20,20
    35,35
    40,15
    50,30
    60,15
    65,35
    80,20
    75,40
    90,35
    80,50
    95,55
    80,65
    90,75
    75,80
    80,95
    65,85
    50,90
  "/>
</svg>
