<?xml version="1.0" encoding="UTF-8"?>
<svg xmlns="http://www.w3.org/2000/svg" 
     width="200mm" height="100mm" 
     viewBox="0 0 200 100">
  <rect width="100%" height="100%" fill="#1a1a1a"/>
  <path id="cell_0" d="M 128.36,75.46 L 130.50,75.12 L 145.41,80.03 L 152.91,74.14 L 150.25,70.00 L 153.44,69.47 L 152.94,64.01 L 113.58,57.59 L 108.45,59.35 L 128.36,75.46 Z" fill="#D4A574" stroke="#1a1a1a" stroke-width="2"/>
  <path id="cell_1" d="M 125.86,16.59 L 120.00,4.88 L 108.67,13.37 L 109.10,18.41 L 125.86,16.59 Z" fill="#C4956A" stroke="#1a1a1a" stroke-width="2"/>
  <path id="cell_2" d="M 105.71,59.60 L 106.67,78.90 L 128.36,75.46 L 108.45,59.35 L 105.71,59.60 Z" fill="#B8860B" stroke="#1a1a1a" stroke-width="2"/>
  <path id="cell_3" d="M 105.71,59.60 L 91.22,49.95 L 84.11,62.15 L 106.49,75.21 L 105.71,59.60 Z" fill="#8B7355" stroke="#1a1a1a" stroke-width="2"/>
  <path id="cell_4" d="M 84.11,62.15 L 75.94,76.14 L 88.28,78.10 L 94.16,68.01 L 84.11,62.15 Z" fill="#6B4423" stroke="#1a1a1a" stroke-width="2"/>
  <path id="cell_5" d="M 88.28,78.10 L 99.50,79.88 L 99.51,80.42 L 100.25,80.03 L 89.23,76.46 L 88.28,78.10 Z" fill="#D4A574" stroke="#1a1a1a" stroke-width="2"/>
  <path id="cell_6" d="M 99.51,80.42 L 99.75,99.75 L 100.49,80.11 L 100.25,80.03 L 99.51,80.42 Z" fill="#C4956A" stroke="#1a1a1a" stroke-width="2"/>
  <path id="cell_7" d="M 100.49,80.11 L 100.50,79.88 L 106.50,78.92 L 97.18,75.83 L 96.24,78.73 L 100.49,80.11 Z" fill="#B8860B" stroke="#1a1a1a" stroke-width="2"/>
  <path id="cell_8" d="M 97.18,75.83 L 90.83,73.72 L 89.23,76.46 L 96.24,78.73 L 97.18,75.83 Z" fill="#8B7355" stroke="#1a1a1a" stroke-width="2"/>
  <path id="cell_9" d="M 106.50,78.92 L 106.67,78.90 L 106.49,75.21 L 94.16,68.01 L 90.83,73.72 L 106.50,78.92 Z" fill="#6B4423" stroke="#1a1a1a" stroke-width="2"/>
  <path id="cell_10" d="M 113.58,57.59 L 152.94,64.01 L 156.91,56.03 L 130.05,42.01 L 113.58,57.59 Z" fill="#D4A574" stroke="#1a1a1a" stroke-width="2"/>
  <path id="cell_11" d="M 140.92,19.42 L 140.84,19.46 L 130.05,42.01 L 156.91,56.03 L 157.36,55.48 L 142.39,20.65 L 140.92,19.42 Z" fill="#C4956A" stroke="#1a1a1a" stroke-width="2"/>
  <path id="cell_12" d="M 29.26,26.63 L 27.22,26.31 L 27.06,27.39 L 29.26,26.63 Z" fill="#B8860B" stroke="#1a1a1a" stroke-width="2"/>
  <path id="cell_13" d="M 27.22,26.31 L 25.83,26.10 L 26.36,27.63 L 27.06,27.39 L 27.22,26.31 Z" fill="#8B7355" stroke="#1a1a1a" stroke-width="2"/>
  <path id="cell_14" d="M 25.83,26.10 L 24.74,25.93 L 24.52,27.37 L 26.08,26.83 L 25.83,26.10 Z" fill="#6B4423" stroke="#1a1a1a" stroke-width="2"/>
  <path id="cell_15" d="M 24.52,27.37 L 24.37,28.32 L 26.36,27.63 L 26.08,26.83 L 24.52,27.37 Z" fill="#D4A574" stroke="#1a1a1a" stroke-width="2"/>
  <path id="cell_16" d="M 24.74,25.93 L 23.24,25.71 L 23.08,26.73 L 24.58,26.96 L 24.74,25.93 Z" fill="#C4956A" stroke="#1a1a1a" stroke-width="2"/>
  <path id="cell_17" d="M 23.08,26.73 L 22.99,27.33 L 24.33,28.33 L 24.37,28.32 L 24.58,26.96 L 23.08,26.73 Z" fill="#B8860B" stroke="#1a1a1a" stroke-width="2"/>
  <path id="cell_18" d="M 23.24,25.71 L 22.54,25.60 L 21.87,26.48 L 22.99,27.33 L 23.24,25.71 Z" fill="#8B7355" stroke="#1a1a1a" stroke-width="2"/>
  <path id="cell_19" d="M 22.54,25.60 L 20.25,25.25 L 21.87,26.48 L 22.54,25.60 Z" fill="#6B4423" stroke="#1a1a1a" stroke-width="2"/>
  <path id="cell_20" d="M 176.28,49.66 L 178.36,48.96 L 179.92,44.70 L 177.26,43.73 L 175.23,48.16 L 176.28,49.66 Z" fill="#D4A574" stroke="#1a1a1a" stroke-width="2"/>
  <path id="cell_21" d="M 178.36,48.96 L 180.67,48.19 L 180.71,48.08 L 178.92,47.42 L 178.36,48.96 Z" fill="#C4956A" stroke="#1a1a1a" stroke-width="2"/>
  <path id="cell_22" d="M 180.71,48.08 L 181.05,47.15 L 179.26,46.50 L 178.92,47.42 L 180.71,48.08 Z" fill="#B8860B" stroke="#1a1a1a" stroke-width="2"/>
  <path id="cell_23" d="M 181.05,47.15 L 181.38,46.25 L 179.59,45.60 L 179.26,46.50 L 181.05,47.15 Z" fill="#8B7355" stroke="#1a1a1a" stroke-width="2"/>
  <path id="cell_24" d="M 181.38,46.25 L 181.71,45.35 L 179.92,44.70 L 179.59,45.60 L 181.38,46.25 Z" fill="#6B4423" stroke="#1a1a1a" stroke-width="2"/>
  <path id="cell_25" d="M 180.67,48.19 L 182.81,47.48 L 182.72,47.24 L 181.22,46.69 L 180.67,48.19 Z" fill="#D4A574" stroke="#1a1a1a" stroke-width="2"/>
  <path id="cell_26" d="M 182.72,47.24 L 182.15,45.51 L 181.71,45.35 L 181.22,46.69 L 182.72,47.24 Z" fill="#C4956A" stroke="#1a1a1a" stroke-width="2"/>
  <path id="cell_27" d="M 182.81,47.48 L 183.63,47.21 L 183.20,45.89 L 182.15,45.51 L 182.81,47.48 Z" fill="#B8860B" stroke="#1a1a1a" stroke-width="2"/>
  <path id="cell_28" d="M 183.63,47.21 L 185.29,46.65 L 183.20,45.89 L 183.63,47.21 Z" fill="#8B7355" stroke="#1a1a1a" stroke-width="2"/>
  <path id="cell_29" d="M 142.39,20.65 L 157.36,55.48 L 175.23,48.16 L 177.26,43.73 L 177.55,42.88 L 160.25,40.00 L 174.34,29.34 L 166.65,27.25 L 150.25,29.75 L 153.35,23.63 L 142.39,20.65 Z" fill="#6B4423" stroke="#1a1a1a" stroke-width="2"/>
  <path id="cell_30" d="M 48.39,51.29 L 55.06,48.34 L 52.39,37.82 L 38.82,41.27 L 41.07,50.14 L 48.39,51.29 Z" fill="#D4A574" stroke="#1a1a1a" stroke-width="2"/>
  <path id="cell_31" d="M 52.39,37.82 L 51.12,32.85 L 44.11,34.63 L 45.38,39.60 L 52.39,37.82 Z" fill="#C4956A" stroke="#1a1a1a" stroke-width="2"/>
  <path id="cell_32" d="M 51.12,32.85 L 49.65,27.06 L 48.06,26.42 L 49.75,29.75 L 46.35,29.23 L 47.50,33.77 L 51.12,32.85 Z" fill="#B8860B" stroke="#1a1a1a" stroke-width="2"/>
  <path id="cell_33" d="M 46.35,29.23 L 42.60,28.66 L 44.11,34.63 L 47.50,33.77 L 46.35,29.23 Z" fill="#8B7355" stroke="#1a1a1a" stroke-width="2"/>
  <path id="cell_34" d="M 42.60,28.66 L 37.32,27.85 L 36.85,33.52 L 38.20,38.83 L 39.75,40.00 L 38.55,40.20 L 38.82,41.27 L 45.38,39.60 L 42.60,28.66 Z" fill="#6B4423" stroke="#1a1a1a" stroke-width="2"/>
  <path id="cell_35" d="M 55.06,48.34 L 74.63,39.66 L 76.97,37.99 L 49.65,27.06 L 55.06,48.34 Z" fill="#D4A574" stroke="#1a1a1a" stroke-width="2"/>
  <path id="cell_36" d="M 53.97,71.82 L 48.07,72.62 L 41.35,83.05 L 41.31,83.33 L 41.83,84.23 L 61.81,77.66 L 53.97,71.82 Z" fill="#C4956A" stroke="#1a1a1a" stroke-width="2"/>
  <path id="cell_37" d="M 61.81,77.66 L 69.50,75.12 L 75.94,76.14 L 91.22,49.95 L 83.88,38.05 L 82.16,37.17 L 76.97,37.99 L 74.63,39.66 L 53.97,71.82 L 61.81,77.66 Z" fill="#B8860B" stroke="#1a1a1a" stroke-width="2"/>
  <path id="cell_38" d="M 145.41,80.03 L 149.82,81.48 L 155.35,77.92 L 152.91,74.14 L 145.41,80.03 Z" fill="#8B7355" stroke="#1a1a1a" stroke-width="2"/>
  <path id="cell_39" d="M 149.82,81.48 L 154.44,83.00 L 155.86,78.71 L 155.35,77.92 L 149.82,81.48 Z" fill="#6B4423" stroke="#1a1a1a" stroke-width="2"/>
  <path id="cell_40" d="M 154.44,83.00 L 155.05,83.20 L 157.67,81.52 L 155.86,78.71 L 154.44,83.00 Z" fill="#D4A574" stroke="#1a1a1a" stroke-width="2"/>
  <path id="cell_41" d="M 155.05,83.20 L 157.24,83.92 L 157.52,83.08 L 156.01,82.58 L 155.05,83.20 Z" fill="#C4956A" stroke="#1a1a1a" stroke-width="2"/>
  <path id="cell_42" d="M 157.52,83.08 L 157.91,81.89 L 157.67,81.52 L 156.01,82.58 L 157.52,83.08 Z" fill="#B8860B" stroke="#1a1a1a" stroke-width="2"/>
  <path id="cell_43" d="M 157.24,83.92 L 158.08,84.20 L 158.52,82.84 L 157.91,81.89 L 157.24,83.92 Z" fill="#8B7355" stroke="#1a1a1a" stroke-width="2"/>
  <path id="cell_44" d="M 158.08,84.20 L 159.75,84.75 L 158.52,82.84 L 158.08,84.20 Z" fill="#6B4423" stroke="#1a1a1a" stroke-width="2"/>
  <path id="cell_45" d="M 48.39,51.29 L 41.12,50.15 L 36.46,67.78 L 43.70,68.99 L 48.39,51.29 Z" fill="#D4A574" stroke="#1a1a1a" stroke-width="2"/>
  <path id="cell_46" d="M 41.12,50.15 L 41.07,50.14 L 38.20,50.84 L 37.74,52.57 L 40.30,53.25 L 41.12,50.15 Z" fill="#C4956A" stroke="#1a1a1a" stroke-width="2"/>
  <path id="cell_47" d="M 37.74,52.57 L 37.32,54.19 L 39.75,55.00 L 37.61,56.07 L 39.43,56.55 L 40.30,53.25 L 37.74,52.57 Z" fill="#B8860B" stroke="#1a1a1a" stroke-width="2"/>
  <path id="cell_48" d="M 38.20,50.84 L 36.09,51.35 L 35.50,53.58 L 37.32,54.19 L 38.20,50.84 Z" fill="#8B7355" stroke="#1a1a1a" stroke-width="2"/>
  <path id="cell_49" d="M 36.09,51.35 L 31.86,52.37 L 35.50,53.58 L 36.09,51.35 Z" fill="#6B4423" stroke="#1a1a1a" stroke-width="2"/>
  <path id="cell_50" d="M 37.61,56.07 L 36.66,56.54 L 36.18,58.37 L 38.77,59.06 L 39.43,56.55 L 37.61,56.07 Z" fill="#D4A574" stroke="#1a1a1a" stroke-width="2"/>
  <path id="cell_51" d="M 36.18,58.37 L 35.54,60.78 L 38.13,61.47 L 38.77,59.06 L 36.18,58.37 Z" fill="#C4956A" stroke="#1a1a1a" stroke-width="2"/>
  <path id="cell_52" d="M 36.66,56.54 L 34.69,57.53 L 33.94,60.36 L 35.54,60.78 L 36.66,56.54 Z" fill="#B8860B" stroke="#1a1a1a" stroke-width="2"/>
  <path id="cell_53" d="M 34.69,57.53 L 30.73,59.51 L 33.94,60.36 L 34.69,57.53 Z" fill="#8B7355" stroke="#1a1a1a" stroke-width="2"/>
  <path id="cell_54" d="M 30.73,59.51 L 24.13,62.81 L 31.41,66.94 L 36.46,67.78 L 38.13,61.47 L 30.73,59.51 Z" fill="#6B4423" stroke="#1a1a1a" stroke-width="2"/>
  <path id="cell_55" d="M 82.16,37.17 L 83.88,38.05 L 109.10,18.41 L 108.67,13.37 L 100.00,19.88 L 80.00,4.88 L 76.61,11.65 L 82.16,37.17 Z" fill="#D4A574" stroke="#1a1a1a" stroke-width="2"/>
  <path id="cell_56" d="M 156.91,56.03 L 153.18,63.53 L 159.61,62.45 L 158.37,55.06 L 157.36,55.48 L 156.91,56.03 Z" fill="#C4956A" stroke="#1a1a1a" stroke-width="2"/>
  <path id="cell_57" d="M 159.61,62.45 L 163.74,61.77 L 163.12,58.05 L 158.99,58.74 L 159.61,62.45 Z" fill="#B8860B" stroke="#1a1a1a" stroke-width="2"/>
  <path id="cell_58" d="M 163.12,58.05 L 162.82,56.29 L 162.55,56.15 L 158.66,56.80 L 158.99,58.74 L 163.12,58.05 Z" fill="#8B7355" stroke="#1a1a1a" stroke-width="2"/>
  <path id="cell_59" d="M 162.55,56.15 L 160.25,55.00 L 162.48,54.26 L 162.35,53.44 L 158.37,55.06 L 158.66,56.80 L 162.55,56.15 Z" fill="#6B4423" stroke="#1a1a1a" stroke-width="2"/>
  <path id="cell_60" d="M 153.18,63.53 L 152.94,64.01 L 153.44,69.47 L 164.71,67.59 L 163.74,61.77 L 153.18,63.53 Z" fill="#D4A574" stroke="#1a1a1a" stroke-width="2"/>
  <path id="cell_61" d="M 164.71,67.59 L 167.15,67.18 L 170.64,60.20 L 162.82,56.29 L 164.71,67.59 Z" fill="#C4956A" stroke="#1a1a1a" stroke-width="2"/>
  <path id="cell_62" d="M 167.15,67.18 L 171.52,66.46 L 173.84,61.80 L 170.64,60.20 L 167.15,67.18 Z" fill="#B8860B" stroke="#1a1a1a" stroke-width="2"/>
  <path id="cell_63" d="M 171.52,66.46 L 175.43,65.80 L 174.85,62.30 L 173.84,61.80 L 171.52,66.46 Z" fill="#8B7355" stroke="#1a1a1a" stroke-width="2"/>
  <path id="cell_64" d="M 175.43,65.80 L 177.04,65.54 L 176.65,63.20 L 174.85,62.30 L 175.43,65.80 Z" fill="#6B4423" stroke="#1a1a1a" stroke-width="2"/>
  <path id="cell_65" d="M 177.04,65.54 L 180.25,65.00 L 176.65,63.20 L 177.04,65.54 Z" fill="#D4A574" stroke="#1a1a1a" stroke-width="2"/>
  <path id="cell_66" d="M 162.48,54.26 L 164.70,53.52 L 164.39,52.60 L 162.35,53.44 L 162.48,54.26 Z" fill="#C4956A" stroke="#1a1a1a" stroke-width="2"/>
  <path id="cell_67" d="M 164.70,53.52 L 165.69,53.19 L 165.36,52.20 L 164.39,52.60 L 164.70,53.52 Z" fill="#B8860B" stroke="#1a1a1a" stroke-width="2"/>
  <path id="cell_68" d="M 165.69,53.19 L 166.64,52.87 L 166.29,51.82 L 165.36,52.20 L 165.69,53.19 Z" fill="#8B7355" stroke="#1a1a1a" stroke-width="2"/>
  <path id="cell_69" d="M 166.64,52.87 L 167.56,52.56 L 167.19,51.46 L 166.29,51.82 L 166.64,52.87 Z" fill="#6B4423" stroke="#1a1a1a" stroke-width="2"/>
  <path id="cell_70" d="M 167.56,52.56 L 168.44,52.27 L 168.05,51.10 L 167.19,51.46 L 167.56,52.56 Z" fill="#D4A574" stroke="#1a1a1a" stroke-width="2"/>
  <path id="cell_71" d="M 168.44,52.27 L 169.29,51.99 L 168.88,50.76 L 168.05,51.10 L 168.44,52.27 Z" fill="#C4956A" stroke="#1a1a1a" stroke-width="2"/>
  <path id="cell_72" d="M 169.29,51.99 L 170.12,51.71 L 169.69,50.43 L 168.88,50.76 L 169.29,51.99 Z" fill="#B8860B" stroke="#1a1a1a" stroke-width="2"/>
  <path id="cell_73" d="M 170.12,51.71 L 170.92,51.44 L 170.48,50.11 L 169.69,50.43 L 170.12,51.71 Z" fill="#8B7355" stroke="#1a1a1a" stroke-width="2"/>
  <path id="cell_74" d="M 170.92,51.44 L 171.70,51.18 L 171.24,49.80 L 170.48,50.11 L 170.92,51.44 Z" fill="#6B4423" stroke="#1a1a1a" stroke-width="2"/>
  <path id="cell_75" d="M 171.70,51.18 L 172.46,50.93 L 171.98,49.49 L 171.24,49.80 L 171.70,51.18 Z" fill="#D4A574" stroke="#1a1a1a" stroke-width="2"/>
  <path id="cell_76" d="M 172.46,50.93 L 173.21,50.68 L 172.71,49.20 L 171.98,49.49 L 172.46,50.93 Z" fill="#C4956A" stroke="#1a1a1a" stroke-width="2"/>
  <path id="cell_77" d="M 173.21,50.68 L 174.65,50.20 L 174.40,49.43 L 172.95,49.91 L 173.21,50.68 Z" fill="#B8860B" stroke="#1a1a1a" stroke-width="2"/>
  <path id="cell_78" d="M 174.40,49.43 L 174.12,48.62 L 172.71,49.20 L 172.95,49.91 L 174.40,49.43 Z" fill="#8B7355" stroke="#1a1a1a" stroke-width="2"/>
  <path id="cell_79" d="M 174.65,50.20 L 176.28,49.66 L 175.80,48.97 L 174.40,49.44 L 174.65,50.20 Z" fill="#6B4423" stroke="#1a1a1a" stroke-width="2"/>
  <path id="cell_80" d="M 175.80,48.97 L 175.23,48.16 L 174.12,48.62 L 174.40,49.44 L 175.80,48.97 Z" fill="#D4A574" stroke="#1a1a1a" stroke-width="2"/>
  <path id="cell_81" d="M 177.26,43.73 L 178.31,44.11 L 178.49,43.04 L 177.55,42.88 L 177.26,43.73 Z" fill="#C4956A" stroke="#1a1a1a" stroke-width="2"/>
  <path id="cell_82" d="M 178.31,44.11 L 179.18,44.43 L 179.39,43.19 L 178.49,43.04 L 178.31,44.11 Z" fill="#B8860B" stroke="#1a1a1a" stroke-width="2"/>
  <path id="cell_83" d="M 179.18,44.43 L 179.98,44.72 L 180.21,43.33 L 179.39,43.19 L 179.18,44.43 Z" fill="#8B7355" stroke="#1a1a1a" stroke-width="2"/>
  <path id="cell_84" d="M 179.98,44.72 L 180.72,44.99 L 180.98,43.45 L 180.21,43.33 L 179.98,44.72 Z" fill="#6B4423" stroke="#1a1a1a" stroke-width="2"/>
  <path id="cell_85" d="M 180.72,44.99 L 182.08,45.49 L 182.24,44.52 L 180.84,44.29 L 180.72,44.99 Z" fill="#D4A574" stroke="#1a1a1a" stroke-width="2"/>
  <path id="cell_86" d="M 182.24,44.52 L 182.38,43.69 L 180.98,43.45 L 180.84,44.29 L 182.24,44.52 Z" fill="#C4956A" stroke="#1a1a1a" stroke-width="2"/>
  <path id="cell_87" d="M 182.08,45.49 L 183.32,45.94 L 183.50,44.86 L 182.22,44.65 L 182.08,45.49 Z" fill="#B8860B" stroke="#1a1a1a" stroke-width="2"/>
  <path id="cell_88" d="M 183.50,44.86 L 183.66,43.90 L 182.38,43.69 L 182.22,44.65 L 183.50,44.86 Z" fill="#8B7355" stroke="#1a1a1a" stroke-width="2"/>
  <path id="cell_89" d="M 183.32,45.94 L 184.52,46.37 L 184.72,45.19 L 183.48,44.98 L 183.32,45.94 Z" fill="#6B4423" stroke="#1a1a1a" stroke-width="2"/>
  <path id="cell_90" d="M 184.72,45.19 L 184.90,44.11 L 183.66,43.90 L 183.48,44.98 L 184.72,45.19 Z" fill="#D4A574" stroke="#1a1a1a" stroke-width="2"/>
  <path id="cell_91" d="M 184.52,46.37 L 185.29,46.65 L 185.71,46.51 L 185.89,45.47 L 184.71,45.27 L 184.52,46.37 Z" fill="#C4956A" stroke="#1a1a1a" stroke-width="2"/>
  <path id="cell_92" d="M 185.89,45.47 L 186.08,44.31 L 184.90,44.11 L 184.71,45.27 L 185.89,45.47 Z" fill="#B8860B" stroke="#1a1a1a" stroke-width="2"/>
  <path id="cell_93" d="M 185.71,46.51 L 187.23,46.01 L 187.32,45.47 L 185.93,45.24 L 185.71,46.51 Z" fill="#8B7355" stroke="#1a1a1a" stroke-width="2"/>
  <path id="cell_94" d="M 187.32,45.47 L 187.47,44.54 L 186.08,44.31 L 185.93,45.24 L 187.32,45.47 Z" fill="#6B4423" stroke="#1a1a1a" stroke-width="2"/>
  <path id="cell_95" d="M 187.23,46.01 L 190.25,45.00 L 187.47,44.54 L 187.23,46.01 Z" fill="#D4A574" stroke="#1a1a1a" stroke-width="2"/>
  <path id="cell_96" d="M 53.97,71.82 L 61.53,60.06 L 48.31,51.57 L 43.70,68.99 L 49.75,70.00 L 48.07,72.62 L 53.97,71.82 Z" fill="#C4956A" stroke="#1a1a1a" stroke-width="2"/>
  <path id="cell_97" d="M 61.53,60.06 L 65.90,53.26 L 56.94,47.50 L 48.39,51.29 L 48.31,51.57 L 61.53,60.06 Z" fill="#B8860B" stroke="#1a1a1a" stroke-width="2"/>
  <path id="cell_98" d="M 65.90,53.26 L 68.81,48.72 L 62.84,44.89 L 56.94,47.50 L 65.90,53.26 Z" fill="#8B7355" stroke="#1a1a1a" stroke-width="2"/>
  <path id="cell_99" d="M 68.81,48.72 L 69.91,47.01 L 67.96,42.62 L 62.84,44.89 L 68.81,48.72 Z" fill="#6B4423" stroke="#1a1a1a" stroke-width="2"/>
  <path id="cell_100" d="M 69.91,47.01 L 71.48,44.56 L 70.18,41.63 L 67.96,42.62 L 69.91,47.01 Z" fill="#D4A574" stroke="#1a1a1a" stroke-width="2"/>
  <path id="cell_101" d="M 71.48,44.56 L 74.63,39.66 L 70.18,41.63 L 71.48,44.56 Z" fill="#C4956A" stroke="#1a1a1a" stroke-width="2"/>
  <path id="cell_102" d="M 109.10,18.41 L 101.56,24.28 L 121.59,50.01 L 129.92,42.12 L 111.28,18.18 L 109.10,18.41 Z" fill="#B8860B" stroke="#1a1a1a" stroke-width="2"/>
  <path id="cell_103" d="M 129.92,42.12 L 130.05,42.01 L 133.67,34.43 L 127.23,26.16 L 121.17,30.88 L 129.92,42.12 Z" fill="#8B7355" stroke="#1a1a1a" stroke-width="2"/>
  <path id="cell_104" d="M 133.67,34.43 L 136.72,28.06 L 130.04,24.86 L 130.00,24.88 L 129.98,24.83 L 129.33,24.52 L 127.23,26.16 L 133.67,34.43 Z" fill="#6B4423" stroke="#1a1a1a" stroke-width="2"/>
  <path id="cell_105" d="M 136.72,28.06 L 140.84,19.46 L 130.04,24.86 L 136.72,28.06 Z" fill="#D4A574" stroke="#1a1a1a" stroke-width="2"/>
  <path id="cell_106" d="M 129.69,24.25 L 125.86,16.59 L 111.28,18.18 L 121.17,30.88 L 129.69,24.25 Z" fill="#C4956A" stroke="#1a1a1a" stroke-width="2"/>
  <path id="cell_107" d="M 101.56,24.28 L 83.88,38.05 L 91.22,49.95 L 105.71,59.60 L 108.45,59.35 L 113.58,57.59 L 121.59,50.01 L 101.56,24.28 Z" fill="#B8860B" stroke="#1a1a1a" stroke-width="2"/>
  <path id="cell_108" d="M 82.16,37.17 L 79.85,26.56 L 63.63,30.09 L 63.53,32.61 L 76.97,37.99 L 82.16,37.17 Z" fill="#8B7355" stroke="#1a1a1a" stroke-width="2"/>
  <path id="cell_109" d="M 79.85,26.56 L 78.61,20.85 L 72.25,22.23 L 73.50,27.95 L 79.85,26.56 Z" fill="#6B4423" stroke="#1a1a1a" stroke-width="2"/>
  <path id="cell_110" d="M 78.61,20.85 L 77.93,17.73 L 73.04,18.79 L 71.97,20.93 L 72.25,22.23 L 78.61,20.85 Z" fill="#D4A574" stroke="#1a1a1a" stroke-width="2"/>
  <path id="cell_111" d="M 77.93,17.73 L 76.61,11.65 L 73.04,18.79 L 77.93,17.73 Z" fill="#C4956A" stroke="#1a1a1a" stroke-width="2"/>
  <path id="cell_112" d="M 71.97,20.93 L 70.00,24.88 L 67.53,23.64 L 68.13,26.43 L 72.94,25.38 L 71.97,20.93 Z" fill="#B8860B" stroke="#1a1a1a" stroke-width="2"/>
  <path id="cell_113" d="M 68.13,26.43 L 68.69,28.99 L 73.50,27.95 L 72.94,25.38 L 68.13,26.43 Z" fill="#8B7355" stroke="#1a1a1a" stroke-width="2"/>
  <path id="cell_114" d="M 67.53,23.64 L 63.98,21.87 L 63.63,30.09 L 68.69,28.99 L 67.53,23.64 Z" fill="#6B4423" stroke="#1a1a1a" stroke-width="2"/>
  <path id="cell_115" d="M 63.98,21.87 L 40.50,10.12 L 40.25,11.00 L 48.06,26.42 L 63.53,32.61 L 63.98,21.87 Z" fill="#D4A574" stroke="#1a1a1a" stroke-width="2"/>
</svg>