<?xml version="1.0" encoding="UTF-8"?>
<svg xmlns="http://www.w3.org/2000/svg" width="80.8mm" height="90.2mm"
     viewBox="59.60 10.15 80.80 90.21">
  <rect x="59.60035906280722" y="10.149375" width="80.79928187438557" height="90.21375" fill="#111111"/>
  <path id="cell_0" d="M 101.08,18.49 L 100.00,14.25 L 98.70,19.37 L 101.08,18.49 Z" fill="#D4A574" stroke="#1a1a1a" stroke-width="2.0"/>
  <path id="cell_1" d="M 82.27,37.72 L 93.73,35.64 L 93.73,35.40 L 80.66,27.12 L 82.21,37.68 L 82.27,37.72 Z" fill="#C4956A" stroke="#1a1a1a" stroke-width="2.0"/>
  <path id="cell_2" d="M 112.62,31.38 L 105.50,35.90 L 101.08,18.49 L 98.70,19.37 L 94.50,35.90 L 93.73,35.40 L 93.73,35.64 L 104.50,41.53 L 112.75,34.31 L 112.62,31.38 Z" fill="#B8860B" stroke="#1a1a1a" stroke-width="2.0"/>
  <path id="cell_3" d="M 112.75,34.31 L 118.10,35.57 L 119.34,27.12 L 112.62,31.38 L 112.75,34.31 Z" fill="#8B7355" stroke="#1a1a1a" stroke-width="2.0"/>
  <path id="cell_4" d="M 82.33,53.24 L 82.31,48.87 L 63.70,44.54 L 73.43,57.60 L 82.33,53.24 Z" fill="#6B4423" stroke="#1a1a1a" stroke-width="2.0"/>
  <path id="cell_5" d="M 93.73,35.64 L 82.27,37.72 L 82.27,38.13 L 83.90,49.24 L 82.31,48.87 L 82.33,53.24 L 92.00,57.47 L 104.40,49.62 L 104.50,41.53 L 93.73,35.64 Z" fill="#D4A574" stroke="#1a1a1a" stroke-width="2.0"/>
  <path id="cell_6" d="M 104.50,41.53 L 104.40,49.62 L 111.32,56.92 L 125.01,52.85 L 124.64,47.25 L 116.10,49.24 L 118.10,35.57 L 112.75,34.31 L 104.50,41.53 Z" fill="#C4956A" stroke="#1a1a1a" stroke-width="2.0"/>
  <path id="cell_7" d="M 125.01,52.85 L 128.74,54.69 L 136.30,44.54 L 124.64,47.25 L 125.01,52.85 Z" fill="#B8860B" stroke="#1a1a1a" stroke-width="2.0"/>
  <path id="cell_8" d="M 71.67,66.83 L 71.65,66.49 L 67.10,69.20 L 68.68,69.99 L 71.67,66.83 Z" fill="#8B7355" stroke="#1a1a1a" stroke-width="2.0"/>
  <path id="cell_9" d="M 71.67,66.83 L 84.81,74.45 L 91.71,70.78 L 92.00,57.47 L 82.33,53.24 L 73.43,57.60 L 77.47,63.02 L 71.65,66.49 L 71.67,66.83 Z" fill="#6B4423" stroke="#1a1a1a" stroke-width="2.0"/>
  <path id="cell_10" d="M 104.40,49.62 L 92.00,57.47 L 91.71,70.78 L 101.22,75.00 L 112.70,68.23 L 111.32,56.92 L 104.40,49.62 Z" fill="#D4A574" stroke="#1a1a1a" stroke-width="2.0"/>
  <path id="cell_11" d="M 125.01,52.85 L 111.32,56.92 L 112.70,68.23 L 122.55,74.39 L 132.90,69.20 L 122.53,63.02 L 128.74,54.69 L 125.01,52.85 Z" fill="#C4956A" stroke="#1a1a1a" stroke-width="2.0"/>
  <path id="cell_12" d="M 84.81,74.45 L 71.67,66.83 L 68.68,69.99 L 81.84,76.59 L 83.80,78.93 L 84.81,74.45 Z" fill="#B8860B" stroke="#1a1a1a" stroke-width="2.0"/>
  <path id="cell_13" d="M 102.34,86.78 L 101.22,75.00 L 91.71,70.78 L 84.81,74.45 L 83.80,78.93 L 86.85,82.59 L 95.84,86.42 L 97.24,89.73 L 102.34,86.78 Z" fill="#8B7355" stroke="#1a1a1a" stroke-width="2.0"/>
  <path id="cell_14" d="M 112.70,68.23 L 101.22,75.00 L 102.34,86.78 L 103.68,87.54 L 104.16,86.42 L 113.15,82.59 L 118.16,76.59 L 122.55,74.39 L 112.70,68.23 Z" fill="#6B4423" stroke="#1a1a1a" stroke-width="2.0"/>
  <path id="cell_15" d="M 102.34,86.78 L 97.24,89.73 L 100.00,96.26 L 103.68,87.54 L 102.34,86.78 Z" fill="#D4A574" stroke="#1a1a1a" stroke-width="2.0"/>
  <path id="vein_0" d="M 100.00,94.62 L 100.00,18.35" fill="none" stroke="#1a1a1a" stroke-width="2.4"/>
  <path id="vein_1" d="M 100.00,94.62 L 100.88,94.18" fill="none" stroke="#1a1a1a" stroke-width="2.4"/>
  <path id="vein_2" d="M 100.00,94.62 L 102.35,90.69" fill="none" stroke="#1a1a1a" stroke-width="2.4"/>
  <path id="vein_3" d="M 105.16,85.99 L 105.46,85.49 L 110.65,76.49 L 115.32,67.73 L 119.37,59.27 L 122.78,51.12 L 124.16,47.37" fill="none" stroke="#1a1a1a" stroke-width="2.4"/>
  <path id="vein_4" d="M 105.66,82.78 L 104.02,71.44" fill="none" stroke="#1a1a1a" stroke-width="2.4"/>
  <path id="vein_5" d="M 114.15,65.03 L 127.90,55.81" fill="none" stroke="#1a1a1a" stroke-width="2.4"/>
  <path id="vein_6" d="M 100.00,94.62 L 97.51,90.36" fill="none" stroke="#1a1a1a" stroke-width="2.4"/>
  <path id="vein_7" d="M 94.99,86.05 L 94.64,85.45 L 89.56,76.41 L 84.99,67.61 L 81.06,59.10 L 77.77,50.89 L 76.60,47.54" fill="none" stroke="#1a1a1a" stroke-width="2.4"/>
  <path id="vein_8" d="M 94.50,82.71 L 78.78,71.75" fill="none" stroke="#1a1a1a" stroke-width="2.4"/>
  <path id="vein_9" d="M 86.24,64.84 L 88.87,47.28" fill="none" stroke="#1a1a1a" stroke-width="2.4"/>
  <path id="vein_10" d="M 100.00,94.62 L 99.14,94.22" fill="none" stroke="#1a1a1a" stroke-width="2.4"/>
  <path id="boundary" d="M 100.00,14.25 L 105.50,35.90 L 119.34,27.12 L 116.10,49.24 L 136.30,44.54 L 122.53,63.02 L 132.90,69.20 L 118.16,76.59 L 113.15,82.59 L 104.16,86.42 L 100.00,96.26 L 95.84,86.42 L 86.85,82.59 L 81.84,76.59 L 67.10,69.20 L 77.47,63.02 L 63.70,44.54 L 83.90,49.24 L 80.66,27.12 L 94.50,35.90 L 100.00,14.25 Z" fill="none" stroke="#1a1a1a" stroke-width="3.6"/>
</svg>