<?xml version="1.0" encoding="UTF-8"?>
<svg xmlns="http://www.w3.org/2000/svg" width="129.2mm" height="152.0mm"
     viewBox="10.41 4.64 129.18 151.99">
  <rect x="10.409025263862558" y="4.639452889488899" width="129.18194947227488" height="151.98803643124427" fill="#111111"/>
  <path id="cell_0" d="M 84.59,28.85 L 98.75,18.30 L 92.51,15.05 L 83.87,12.43 L 75.00,11.55 L 66.13,12.43 L 57.49,15.05 L 54.66,16.52 L 84.59,28.85 Z" fill="#D4A574" stroke="#1a1a1a" stroke-width="2.0"/>
  <path id="cell_1" d="M 41.43,47.44 L 38.28,28.78 L 35.01,32.24 L 29.24,40.51 L 24.54,49.66 L 20.99,59.46 L 20.06,63.41 L 41.43,47.44 Z" fill="#C4956A" stroke="#1a1a1a" stroke-width="2.0"/>
  <path id="cell_2" d="M 41.43,47.44 L 56.83,58.81 L 80.10,51.75 L 84.59,28.85 L 54.66,16.52 L 49.29,19.32 L 41.74,25.11 L 38.28,28.78 L 41.43,47.44 Z" fill="#B8860B" stroke="#1a1a1a" stroke-width="2.0"/>
  <path id="cell_3" d="M 84.59,28.85 L 80.10,51.75 L 96.90,66.35 L 117.43,57.08 L 114.24,31.44 L 108.26,25.11 L 100.71,19.32 L 98.75,18.30 L 84.59,28.85 Z" fill="#8B7355" stroke="#1a1a1a" stroke-width="2.0"/>
  <path id="cell_4" d="M 117.43,57.08 L 129.44,61.29 L 129.01,59.46 L 125.46,49.66 L 120.76,40.51 L 114.99,32.24 L 114.24,31.44 L 117.43,57.08 Z" fill="#6B4423" stroke="#1a1a1a" stroke-width="2.0"/>
  <path id="cell_5" d="M 41.43,47.44 L 20.06,63.41 L 18.61,69.63 L 17.40,79.93 L 17.32,89.92 L 33.81,96.92 L 55.64,86.72 L 56.83,58.81 L 41.43,47.44 Z" fill="#D4A574" stroke="#1a1a1a" stroke-width="2.0"/>
  <path id="cell_6" d="M 96.90,66.35 L 80.10,51.75 L 56.83,58.81 L 55.64,86.72 L 75.02,97.24 L 94.67,86.53 L 96.90,66.35 Z" fill="#C4956A" stroke="#1a1a1a" stroke-width="2.0"/>
  <path id="cell_7" d="M 132.49,92.11 L 132.68,90.13 L 132.60,79.93 L 131.39,69.63 L 129.44,61.29 L 117.43,57.08 L 96.90,66.35 L 94.67,86.53 L 117.24,101.96 L 132.49,92.11 Z" fill="#B8860B" stroke="#1a1a1a" stroke-width="2.0"/>
  <path id="cell_8" d="M 38.49,122.63 L 33.81,96.92 L 17.32,89.92 L 17.32,90.13 L 18.30,100.00 L 20.49,109.33 L 23.69,117.87 L 27.69,125.47 L 30.00,128.76 L 38.49,122.63 Z" fill="#8B7355" stroke="#1a1a1a" stroke-width="2.0"/>
  <path id="cell_9" d="M 75.02,97.24 L 55.64,86.72 L 33.81,96.92 L 38.49,122.63 L 57.61,132.69 L 75.09,123.36 L 75.02,97.24 Z" fill="#6B4423" stroke="#1a1a1a" stroke-width="2.0"/>
  <path id="cell_10" d="M 117.24,101.96 L 94.67,86.53 L 75.02,97.24 L 75.09,123.36 L 90.52,131.58 L 99.29,128.13 L 100.59,125.53 L 102.38,120.55 L 103.58,115.39 L 104.14,110.15 L 104.07,104.97 L 117.21,102.61 L 117.24,101.96 Z" fill="#D4A574" stroke="#1a1a1a" stroke-width="2.0"/>
  <path id="cell_11" d="M 117.24,101.96 L 117.21,102.61 L 131.70,100.00 L 132.49,92.11 L 117.24,101.96 Z" fill="#C4956A" stroke="#1a1a1a" stroke-width="2.0"/>
  <path id="cell_12" d="M 38.49,122.63 L 30.00,128.76 L 32.31,132.04 L 37.37,137.53 L 42.73,141.95 L 48.25,145.32 L 53.82,147.70 L 56.07,148.29 L 57.61,132.69 L 38.49,122.63 Z" fill="#B8860B" stroke="#1a1a1a" stroke-width="2.0"/>
  <path id="cell_13" d="M 90.52,131.58 L 75.09,123.36 L 57.61,132.69 L 56.07,148.29 L 59.34,149.14 L 64.75,149.72 L 69.99,149.50 L 75.00,148.54 L 79.75,146.91 L 84.20,144.65 L 88.32,141.80 L 91.17,139.22 L 90.52,131.58 Z" fill="#8B7355" stroke="#1a1a1a" stroke-width="2.0"/>
  <path id="cell_14" d="M 90.52,131.58 L 91.17,139.22 L 92.06,138.41 L 95.38,134.53 L 98.24,130.22 L 99.29,128.13 L 90.52,131.58 Z" fill="#6B4423" stroke="#1a1a1a" stroke-width="2.0"/>
  <path id="vein_0" d="M 75.00,146.96 L 75.00,18.46" fill="none" stroke="#1a1a1a" stroke-width="2.4"/>
  <path id="vein_1" d="M 75.00,146.96 L 90.64,138.97 L 92.27,138.17" fill="none" stroke="#1a1a1a" stroke-width="2.4"/>
  <path id="vein_2" d="M 75.00,146.96 L 83.38,131.41 L 91.29,116.06 L 98.39,101.06 L 104.45,86.48 L 109.49,72.32 L 113.70,58.52 L 117.45,44.90" fill="none" stroke="#1a1a1a" stroke-width="2.4"/>
  <path id="vein_3" d="M 83.49,126.54 L 81.29,94.70" fill="none" stroke="#1a1a1a" stroke-width="2.4"/>
  <path id="vein_4" d="M 96.23,95.93 L 115.93,80.34" fill="none" stroke="#1a1a1a" stroke-width="2.4"/>
  <path id="vein_5" d="M 108.96,65.31 L 104.46,49.35" fill="none" stroke="#1a1a1a" stroke-width="2.4"/>
  <path id="vein_6" d="M 75.00,146.96 L 66.61,131.42 L 58.67,116.07 L 51.56,101.07 L 45.48,86.50 L 40.43,72.36 L 36.20,58.56 L 32.42,44.95" fill="none" stroke="#1a1a1a" stroke-width="2.4"/>
  <path id="vein_7" d="M 66.48,126.55 L 40.21,112.95" fill="none" stroke="#1a1a1a" stroke-width="2.4"/>
  <path id="vein_8" d="M 53.71,95.95 L 56.28,78.74" fill="none" stroke="#1a1a1a" stroke-width="2.4"/>
  <path id="vein_9" d="M 40.94,65.35 L 23.34,52.98" fill="none" stroke="#1a1a1a" stroke-width="2.4"/>
  <path id="vein_10" d="M 75.00,146.96 L 59.42,138.71 L 44.03,130.93 L 28.97,123.98 L 26.35,122.92" fill="none" stroke="#1a1a1a" stroke-width="2.4"/>
  <path id="vein_11" d="M 54.51,138.67 L 41.12,140.63" fill="none" stroke="#1a1a1a" stroke-width="2.4"/>
  <path id="boundary" d="M 131.70,100.00 L 132.68,90.13 L 132.60,79.93 L 131.39,69.63 L 129.01,59.46 L 125.46,49.66 L 120.76,40.51 L 114.99,32.24 L 108.26,25.11 L 100.71,19.32 L 92.51,15.05 L 83.87,12.43 L 75.00,11.55 L 66.13,12.43 L 57.49,15.05 L 49.29,19.32 L 41.74,25.11 L 35.01,32.24 L 29.24,40.51 L 24.54,49.66 L 20.99,59.46 L 18.61,69.63 L 17.40,79.93 L 17.32,90.13 L 18.30,100.00 L 20.49,109.33 L 23.69,117.87 L 27.69,125.47 L 32.31,132.04 L 37.37,137.53 L 42.73,141.95 L 48.25,145.32 L 53.82,147.70 L 59.34,149.14 L 64.75,149.72 L 69.99,149.50 L 75.00,148.54 L 79.75,146.91 L 84.20,144.65 L 88.32,141.80 L 92.06,138.41 L 95.38,134.53 L 98.24,130.22 L 100.59,125.53 L 102.38,120.55 L 103.58,115.39 L 104.14,110.15 L 104.07,104.97 L 131.70,100.00 Z" fill="none" stroke="#1a1a1a" stroke-width="3.6"/>
</svg>