<?xml version="1.0" encoding="UTF-8"?>
<svg xmlns="http://www.w3.org/2000/svg" 
     width="200mm" height="100mm" 
     viewBox="0 0 200 100">
  <rect width="100%" height="100%" fill="#1a1a1a"/>
  <path id="cell_0" d="M 152.67,19.77 L 154.22,21.92 L 159.75,11.00 L 159.50,10.12 L 153.11,13.32 L 152.67,19.77 Z" fill="#D4A574" stroke="#1a1a1a" stroke-width="2"/>
  <path id="cell_1" d="M 33.68,65.72 L 31.36,59.20 L 19.88,64.93 L 19.90,65.03 L 32.74,67.16 L 33.68,65.72 Z" fill="#C4956A" stroke="#1a1a1a" stroke-width="2"/>
  <path id="cell_2" d="M 77.10,73.14 L 75.56,73.62 L 75.18,76.02 L 78.63,76.57 L 77.10,73.14 Z" fill="#B8860B" stroke="#1a1a1a" stroke-width="2"/>
  <path id="cell_3" d="M 75.56,73.62 L 73.81,74.16 L 73.71,74.75 L 75.34,75.01 L 75.56,73.62 Z" fill="#8B7355" stroke="#1a1a1a" stroke-width="2"/>
  <path id="cell_4" d="M 73.71,74.75 L 73.55,75.77 L 75.18,76.02 L 75.34,75.01 L 73.71,74.75 Z" fill="#6B4423" stroke="#1a1a1a" stroke-width="2"/>
  <path id="cell_5" d="M 73.81,74.16 L 72.64,74.53 L 72.47,75.60 L 73.55,75.77 L 73.81,74.16 Z" fill="#D4A574" stroke="#1a1a1a" stroke-width="2"/>
  <path id="cell_6" d="M 72.64,74.53 L 70.30,75.25 L 72.47,75.60 L 72.64,74.53 Z" fill="#C4956A" stroke="#1a1a1a" stroke-width="2"/>
  <path id="cell_7" d="M 125.41,15.69 L 120.00,4.88 L 102.96,17.66 L 103.97,20.23 L 115.93,24.58 L 122.67,24.35 L 125.41,15.69 Z" fill="#B8860B" stroke="#1a1a1a" stroke-width="2"/>
  <path id="cell_8" d="M 159.40,43.33 L 142.74,54.66 L 140.62,78.46 L 141.05,78.60 L 156.64,79.93 L 150.25,70.00 L 174.48,65.96 L 175.94,62.85 L 160.25,55.00 L 173.41,50.61 L 173.33,50.51 L 167.19,46.81 L 159.40,43.33 Z" fill="#8B7355" stroke="#1a1a1a" stroke-width="2"/>
  <path id="cell_9" d="M 159.40,43.33 L 167.19,46.81 L 170.05,41.63 L 160.25,40.00 L 178.63,26.10 L 179.04,25.36 L 155.99,28.88 L 159.40,43.33 Z" fill="#6B4423" stroke="#1a1a1a" stroke-width="2"/>
  <path id="cell_10" d="M 124.73,24.96 L 136.27,51.38 L 142.74,54.66 L 159.40,43.33 L 155.99,28.88 L 150.25,29.75 L 154.22,21.92 L 152.67,19.77 L 132.84,23.45 L 130.00,24.88 L 129.59,24.06 L 124.73,24.96 Z" fill="#D4A574" stroke="#1a1a1a" stroke-width="2"/>
  <path id="cell_11" d="M 99.86,25.70 L 103.97,20.23 L 102.96,17.66 L 100.00,19.88 L 80.00,4.88 L 76.74,11.40 L 77.91,29.76 L 99.86,25.70 Z" fill="#C4956A" stroke="#1a1a1a" stroke-width="2"/>
  <path id="cell_12" d="M 141.05,78.60 L 144.42,79.71 L 144.49,78.89 L 141.05,78.60 Z" fill="#B8860B" stroke="#1a1a1a" stroke-width="2"/>
  <path id="cell_13" d="M 144.42,79.71 L 145.97,80.21 L 146.35,79.05 L 144.49,78.89 L 144.42,79.71 Z" fill="#8B7355" stroke="#1a1a1a" stroke-width="2"/>
  <path id="cell_14" d="M 145.97,80.21 L 147.45,80.70 L 147.58,79.15 L 146.35,79.05 L 145.97,80.21 Z" fill="#6B4423" stroke="#1a1a1a" stroke-width="2"/>
  <path id="cell_15" d="M 147.45,80.70 L 148.63,81.09 L 148.71,80.10 L 147.51,80.00 L 147.45,80.70 Z" fill="#D4A574" stroke="#1a1a1a" stroke-width="2"/>
  <path id="cell_16" d="M 148.71,80.10 L 148.78,79.26 L 147.58,79.15 L 147.51,80.00 L 148.71,80.10 Z" fill="#C4956A" stroke="#1a1a1a" stroke-width="2"/>
  <path id="cell_17" d="M 148.63,81.09 L 149.72,81.45 L 149.81,80.40 L 148.69,80.30 L 148.63,81.09 Z" fill="#B8860B" stroke="#1a1a1a" stroke-width="2"/>
  <path id="cell_18" d="M 149.72,81.45 L 150.65,81.76 L 150.76,80.48 L 149.81,80.40 L 149.72,81.45 Z" fill="#8B7355" stroke="#1a1a1a" stroke-width="2"/>
  <path id="cell_19" d="M 150.76,80.48 L 150.85,79.43 L 149.82,79.34 L 149.73,80.39 L 150.76,80.48 Z" fill="#6B4423" stroke="#1a1a1a" stroke-width="2"/>
  <path id="cell_20" d="M 149.82,79.34 L 148.78,79.26 L 148.69,80.30 L 149.73,80.39 L 149.82,79.34 Z" fill="#D4A574" stroke="#1a1a1a" stroke-width="2"/>
  <path id="cell_21" d="M 150.65,81.76 L 151.35,81.99 L 151.77,80.71 L 150.75,80.62 L 150.65,81.76 Z" fill="#C4956A" stroke="#1a1a1a" stroke-width="2"/>
  <path id="cell_22" d="M 151.35,81.99 L 152.11,82.23 L 152.59,80.77 L 151.77,80.71 L 151.35,81.99 Z" fill="#B8860B" stroke="#1a1a1a" stroke-width="2"/>
  <path id="cell_23" d="M 152.59,80.77 L 152.97,79.61 L 151.84,79.52 L 151.74,80.70 L 152.59,80.77 Z" fill="#8B7355" stroke="#1a1a1a" stroke-width="2"/>
  <path id="cell_24" d="M 151.84,79.52 L 150.85,79.43 L 150.75,80.62 L 151.74,80.70 L 151.84,79.52 Z" fill="#6B4423" stroke="#1a1a1a" stroke-width="2"/>
  <path id="cell_25" d="M 152.11,82.23 L 155.14,83.23 L 156.24,79.89 L 152.97,79.61 L 152.11,82.23 Z" fill="#D4A574" stroke="#1a1a1a" stroke-width="2"/>
  <path id="cell_26" d="M 155.14,83.23 L 155.92,83.49 L 156.42,81.94 L 155.65,81.69 L 155.14,83.23 Z" fill="#C4956A" stroke="#1a1a1a" stroke-width="2"/>
  <path id="cell_27" d="M 155.92,83.49 L 156.69,83.74 L 157.20,82.20 L 156.42,81.94 L 155.92,83.49 Z" fill="#B8860B" stroke="#1a1a1a" stroke-width="2"/>
  <path id="cell_28" d="M 157.20,82.20 L 157.46,81.41 L 155.91,80.90 L 155.65,81.69 L 157.20,82.20 Z" fill="#8B7355" stroke="#1a1a1a" stroke-width="2"/>
  <path id="cell_29" d="M 157.46,81.41 L 157.51,81.27 L 156.64,79.93 L 156.24,79.89 L 155.91,80.90 L 157.46,81.41 Z" fill="#6B4423" stroke="#1a1a1a" stroke-width="2"/>
  <path id="cell_30" d="M 156.69,83.74 L 157.71,84.08 L 158.05,83.03 L 157.03,82.70 L 156.69,83.74 Z" fill="#D4A574" stroke="#1a1a1a" stroke-width="2"/>
  <path id="cell_31" d="M 158.05,83.03 L 158.25,82.43 L 157.51,81.27 L 157.03,82.70 L 158.05,83.03 Z" fill="#C4956A" stroke="#1a1a1a" stroke-width="2"/>
  <path id="cell_32" d="M 157.71,84.08 L 159.75,84.75 L 158.25,82.43 L 157.71,84.08 Z" fill="#B8860B" stroke="#1a1a1a" stroke-width="2"/>
  <path id="cell_33" d="M 30.91,41.47 L 24.86,42.48 L 22.59,49.28 L 29.21,51.49 L 32.05,42.04 L 30.91,41.47 Z" fill="#8B7355" stroke="#1a1a1a" stroke-width="2"/>
  <path id="cell_34" d="M 24.86,42.48 L 19.82,43.32 L 18.31,47.85 L 22.59,49.28 L 24.86,42.48 Z" fill="#6B4423" stroke="#1a1a1a" stroke-width="2"/>
  <path id="cell_35" d="M 19.82,43.32 L 16.47,43.88 L 15.46,46.90 L 18.31,47.85 L 19.82,43.32 Z" fill="#D4A574" stroke="#1a1a1a" stroke-width="2"/>
  <path id="cell_36" d="M 16.47,43.88 L 14.23,44.25 L 13.98,44.99 L 15.88,45.63 L 16.47,43.88 Z" fill="#C4956A" stroke="#1a1a1a" stroke-width="2"/>
  <path id="cell_37" d="M 13.98,44.99 L 13.56,46.27 L 15.46,46.90 L 15.88,45.63 L 13.98,44.99 Z" fill="#B8860B" stroke="#1a1a1a" stroke-width="2"/>
  <path id="cell_38" d="M 14.23,44.25 L 12.73,44.50 L 12.29,45.85 L 13.56,46.27 L 14.23,44.25 Z" fill="#8B7355" stroke="#1a1a1a" stroke-width="2"/>
  <path id="cell_39" d="M 12.73,44.50 L 9.75,45.00 L 12.29,45.85 L 12.73,44.50 Z" fill="#6B4423" stroke="#1a1a1a" stroke-width="2"/>
  <path id="cell_40" d="M 33.68,65.72 L 32.74,67.16 L 34.02,67.38 L 34.29,65.76 L 33.68,65.72 Z" fill="#D4A574" stroke="#1a1a1a" stroke-width="2"/>
  <path id="cell_41" d="M 34.02,67.38 L 34.94,67.53 L 35.23,65.82 L 34.29,65.76 L 34.02,67.38 Z" fill="#C4956A" stroke="#1a1a1a" stroke-width="2"/>
  <path id="cell_42" d="M 34.94,67.53 L 36.69,67.82 L 36.84,66.92 L 35.09,66.63 L 34.94,67.53 Z" fill="#B8860B" stroke="#1a1a1a" stroke-width="2"/>
  <path id="cell_43" d="M 36.84,66.92 L 37.00,65.94 L 35.23,65.82 L 35.09,66.63 L 36.84,66.92 Z" fill="#8B7355" stroke="#1a1a1a" stroke-width="2"/>
  <path id="cell_44" d="M 36.69,67.82 L 38.33,68.10 L 38.49,67.11 L 36.85,66.84 L 36.69,67.82 Z" fill="#6B4423" stroke="#1a1a1a" stroke-width="2"/>
  <path id="cell_45" d="M 38.49,67.11 L 38.67,66.05 L 37.00,65.94 L 36.85,66.84 L 38.49,67.11 Z" fill="#D4A574" stroke="#1a1a1a" stroke-width="2"/>
  <path id="cell_46" d="M 38.33,68.10 L 39.89,68.36 L 40.07,67.29 L 38.51,67.03 L 38.33,68.10 Z" fill="#C4956A" stroke="#1a1a1a" stroke-width="2"/>
  <path id="cell_47" d="M 40.07,67.29 L 40.26,66.15 L 38.67,66.05 L 38.51,67.03 L 40.07,67.29 Z" fill="#B8860B" stroke="#1a1a1a" stroke-width="2"/>
  <path id="cell_48" d="M 39.89,68.36 L 41.42,68.61 L 41.61,67.47 L 40.08,67.22 L 39.89,68.36 Z" fill="#8B7355" stroke="#1a1a1a" stroke-width="2"/>
  <path id="cell_49" d="M 41.61,67.47 L 41.81,66.25 L 40.26,66.15 L 40.08,67.22 L 41.61,67.47 Z" fill="#6B4423" stroke="#1a1a1a" stroke-width="2"/>
  <path id="cell_50" d="M 41.42,68.61 L 42.90,68.86 L 43.10,67.66 L 41.62,67.41 L 41.42,68.61 Z" fill="#D4A574" stroke="#1a1a1a" stroke-width="2"/>
  <path id="cell_51" d="M 43.10,67.66 L 43.28,66.54 L 42.82,66.32 L 41.81,66.25 L 41.62,67.41 L 43.10,67.66 Z" fill="#C4956A" stroke="#1a1a1a" stroke-width="2"/>
  <path id="cell_52" d="M 42.90,68.86 L 44.51,69.13 L 44.69,68.07 L 43.07,67.81 L 42.90,68.86 Z" fill="#B8860B" stroke="#1a1a1a" stroke-width="2"/>
  <path id="cell_53" d="M 44.69,68.07 L 44.82,67.25 L 43.28,66.54 L 43.07,67.81 L 44.69,68.07 Z" fill="#8B7355" stroke="#1a1a1a" stroke-width="2"/>
  <path id="cell_54" d="M 44.51,69.13 L 45.43,69.28 L 45.70,67.66 L 44.82,67.25 L 44.51,69.13 Z" fill="#6B4423" stroke="#1a1a1a" stroke-width="2"/>
  <path id="cell_55" d="M 45.43,69.28 L 46.80,69.51 L 46.28,67.93 L 45.70,67.66 L 45.43,69.28 Z" fill="#D4A574" stroke="#1a1a1a" stroke-width="2"/>
  <path id="cell_56" d="M 46.80,69.51 L 49.75,70.00 L 47.90,72.87 L 50.68,81.32 L 60.15,78.20 L 55.67,72.32 L 46.28,67.93 L 46.80,69.51 Z" fill="#C4956A" stroke="#1a1a1a" stroke-width="2"/>
  <path id="cell_57" d="M 47.90,72.87 L 45.35,76.83 L 47.20,82.46 L 50.68,81.32 L 47.90,72.87 Z" fill="#B8860B" stroke="#1a1a1a" stroke-width="2"/>
  <path id="cell_58" d="M 45.35,76.83 L 43.65,79.47 L 43.70,79.63 L 46.02,78.86 L 45.35,76.83 Z" fill="#8B7355" stroke="#1a1a1a" stroke-width="2"/>
  <path id="cell_59" d="M 43.70,79.63 L 44.10,80.85 L 46.42,80.08 L 46.02,78.86 L 43.70,79.63 Z" fill="#6B4423" stroke="#1a1a1a" stroke-width="2"/>
  <path id="cell_60" d="M 44.10,80.85 L 44.50,82.04 L 46.81,81.27 L 46.42,80.08 L 44.10,80.85 Z" fill="#D4A574" stroke="#1a1a1a" stroke-width="2"/>
  <path id="cell_61" d="M 44.50,82.04 L 44.89,83.22 L 47.20,82.46 L 46.81,81.27 L 44.50,82.04 Z" fill="#C4956A" stroke="#1a1a1a" stroke-width="2"/>
  <path id="cell_62" d="M 43.65,79.47 L 42.52,81.23 L 42.82,82.15 L 44.36,81.64 L 43.65,79.47 Z" fill="#B8860B" stroke="#1a1a1a" stroke-width="2"/>
  <path id="cell_63" d="M 42.82,82.15 L 43.34,83.73 L 44.89,83.22 L 44.36,81.64 L 42.82,82.15 Z" fill="#8B7355" stroke="#1a1a1a" stroke-width="2"/>
  <path id="cell_64" d="M 42.52,81.23 L 41.46,82.87 L 42.99,83.85 L 43.34,83.73 L 42.52,81.23 Z" fill="#6B4423" stroke="#1a1a1a" stroke-width="2"/>
  <path id="cell_65" d="M 41.46,82.87 L 40.25,84.75 L 42.99,83.85 L 41.46,82.87 Z" fill="#D4A574" stroke="#1a1a1a" stroke-width="2"/>
  <path id="cell_66" d="M 87.97,59.96 L 77.10,73.14 L 78.63,76.57 L 99.50,79.88 L 99.60,87.47 L 100.23,87.03 L 100.50,79.88 L 112.97,77.90 L 107.04,69.09 L 89.84,59.55 L 87.97,59.96 Z" fill="#C4956A" stroke="#1a1a1a" stroke-width="2"/>
  <path id="cell_67" d="M 50.39,18.24 L 51.26,15.51 L 40.50,10.12 L 40.25,11.00 L 43.68,17.77 L 50.39,18.24 Z" fill="#B8860B" stroke="#1a1a1a" stroke-width="2"/>
  <path id="cell_68" d="M 50.39,18.24 L 51.02,28.16 L 63.46,27.36 L 63.08,21.42 L 51.26,15.51 L 50.39,18.24 Z" fill="#8B7355" stroke="#1a1a1a" stroke-width="2"/>
  <path id="cell_69" d="M 63.46,27.36 L 77.70,26.45 L 77.43,22.21 L 71.13,22.61 L 70.00,24.88 L 66.12,22.93 L 63.19,23.12 L 63.46,27.36 Z" fill="#6B4423" stroke="#1a1a1a" stroke-width="2"/>
  <path id="cell_70" d="M 77.43,22.21 L 77.28,19.83 L 73.47,17.93 L 71.13,22.61 L 77.43,22.21 Z" fill="#D4A574" stroke="#1a1a1a" stroke-width="2"/>
  <path id="cell_71" d="M 77.28,19.83 L 77.10,17.02 L 74.56,15.75 L 73.47,17.93 L 77.28,19.83 Z" fill="#C4956A" stroke="#1a1a1a" stroke-width="2"/>
  <path id="cell_72" d="M 77.10,17.02 L 76.74,11.40 L 74.56,15.75 L 77.10,17.02 Z" fill="#B8860B" stroke="#1a1a1a" stroke-width="2"/>
  <path id="cell_73" d="M 66.12,22.93 L 64.09,21.92 L 64.17,23.06 L 66.12,22.93 Z" fill="#8B7355" stroke="#1a1a1a" stroke-width="2"/>
  <path id="cell_74" d="M 64.09,21.92 L 63.08,21.42 L 63.19,23.12 L 64.17,23.06 L 64.09,21.92 Z" fill="#6B4423" stroke="#1a1a1a" stroke-width="2"/>
  <path id="cell_75" d="M 51.02,28.16 L 51.31,32.72 L 52.61,33.96 L 57.36,37.31 L 63.59,39.15 L 77.91,29.76 L 77.70,26.45 L 51.02,28.16 Z" fill="#D4A574" stroke="#1a1a1a" stroke-width="2"/>
  <path id="cell_76" d="M 173.33,50.51 L 173.41,50.61 L 181.41,47.95 L 179.85,43.27 L 179.11,43.14 L 173.33,50.51 Z" fill="#C4956A" stroke="#1a1a1a" stroke-width="2"/>
  <path id="cell_77" d="M 181.41,47.95 L 183.53,47.24 L 184.08,43.97 L 179.85,43.27 L 181.41,47.95 Z" fill="#B8860B" stroke="#1a1a1a" stroke-width="2"/>
  <path id="cell_78" d="M 183.53,47.24 L 185.04,46.74 L 184.67,45.63 L 183.75,45.93 L 183.53,47.24 Z" fill="#8B7355" stroke="#1a1a1a" stroke-width="2"/>
  <path id="cell_79" d="M 185.04,46.74 L 186.26,46.33 L 185.89,45.22 L 184.67,45.63 L 185.04,46.74 Z" fill="#6B4423" stroke="#1a1a1a" stroke-width="2"/>
  <path id="cell_80" d="M 185.89,45.22 L 185.56,44.22 L 184.86,44.10 L 184.60,45.65 L 185.89,45.22 Z" fill="#D4A574" stroke="#1a1a1a" stroke-width="2"/>
  <path id="cell_81" d="M 184.86,44.10 L 184.08,43.97 L 183.75,45.93 L 184.60,45.65 L 184.86,44.10 Z" fill="#C4956A" stroke="#1a1a1a" stroke-width="2"/>
  <path id="cell_82" d="M 186.26,46.33 L 187.22,46.01 L 187.34,45.31 L 185.84,45.06 L 186.26,46.33 Z" fill="#B8860B" stroke="#1a1a1a" stroke-width="2"/>
  <path id="cell_83" d="M 187.34,45.31 L 187.46,44.54 L 185.56,44.22 L 185.84,45.06 L 187.34,45.31 Z" fill="#8B7355" stroke="#1a1a1a" stroke-width="2"/>
  <path id="cell_84" d="M 187.22,46.01 L 190.25,45.00 L 187.46,44.54 L 187.22,46.01 Z" fill="#6B4423" stroke="#1a1a1a" stroke-width="2"/>
  <path id="cell_85" d="M 99.60,87.47 L 99.62,89.18 L 100.15,89.20 L 100.23,87.03 L 99.60,87.47 Z" fill="#D4A574" stroke="#1a1a1a" stroke-width="2"/>
  <path id="cell_86" d="M 99.62,89.18 L 99.65,91.41 L 100.06,91.43 L 100.15,89.20 L 99.62,89.18 Z" fill="#C4956A" stroke="#1a1a1a" stroke-width="2"/>
  <path id="cell_87" d="M 99.65,91.41 L 99.75,99.75 L 100.06,91.43 L 99.65,91.41 Z" fill="#B8860B" stroke="#1a1a1a" stroke-width="2"/>
  <path id="cell_88" d="M 77.10,73.14 L 87.97,59.96 L 63.59,39.15 L 57.36,37.31 L 55.67,72.32 L 60.15,78.20 L 69.50,75.12 L 70.30,75.25 L 77.10,73.14 Z" fill="#8B7355" stroke="#1a1a1a" stroke-width="2"/>
  <path id="cell_89" d="M 116.15,43.46 L 115.93,24.58 L 103.97,20.23 L 99.86,25.70 L 90.78,57.58 L 116.15,43.46 Z" fill="#6B4423" stroke="#1a1a1a" stroke-width="2"/>
  <path id="cell_90" d="M 112.97,77.90 L 130.50,75.12 L 140.62,78.46 L 142.74,54.66 L 136.27,51.38 L 121.94,52.91 L 107.04,69.09 L 112.97,77.90 Z" fill="#D4A574" stroke="#1a1a1a" stroke-width="2"/>
  <path id="cell_91" d="M 107.04,69.09 L 121.94,52.91 L 116.15,43.46 L 90.78,57.58 L 89.84,59.55 L 107.04,69.09 Z" fill="#C4956A" stroke="#1a1a1a" stroke-width="2"/>
  <path id="cell_92" d="M 42.82,66.32 L 55.67,72.32 L 57.36,37.31 L 52.61,33.96 L 42.82,66.32 Z" fill="#B8860B" stroke="#1a1a1a" stroke-width="2"/>
  <path id="cell_93" d="M 174.48,65.96 L 176.41,65.64 L 176.46,65.53 L 175.00,64.85 L 174.48,65.96 Z" fill="#8B7355" stroke="#1a1a1a" stroke-width="2"/>
  <path id="cell_94" d="M 176.46,65.53 L 176.77,64.86 L 175.32,64.18 L 175.00,64.85 L 176.46,65.53 Z" fill="#6B4423" stroke="#1a1a1a" stroke-width="2"/>
  <path id="cell_95" d="M 176.77,64.86 L 177.38,63.56 L 176.66,63.20 L 176.04,64.52 L 176.77,64.86 Z" fill="#D4A574" stroke="#1a1a1a" stroke-width="2"/>
  <path id="cell_96" d="M 176.66,63.20 L 175.94,62.85 L 175.32,64.18 L 176.04,64.52 L 176.66,63.20 Z" fill="#C4956A" stroke="#1a1a1a" stroke-width="2"/>
  <path id="cell_97" d="M 176.41,65.64 L 177.66,65.43 L 177.92,64.91 L 176.97,64.44 L 176.41,65.64 Z" fill="#B8860B" stroke="#1a1a1a" stroke-width="2"/>
  <path id="cell_98" d="M 177.92,64.91 L 178.35,64.05 L 177.38,63.56 L 176.97,64.44 L 177.92,64.91 Z" fill="#8B7355" stroke="#1a1a1a" stroke-width="2"/>
  <path id="cell_99" d="M 177.66,65.43 L 180.25,65.00 L 178.35,64.05 L 177.66,65.43 Z" fill="#6B4423" stroke="#1a1a1a" stroke-width="2"/>
  <path id="cell_100" d="M 51.31,32.72 L 38.39,38.97 L 39.75,40.00 L 34.43,40.89 L 32.05,42.04 L 29.21,51.49 L 39.75,55.00 L 31.36,59.20 L 33.68,65.72 L 42.82,66.32 L 52.61,33.96 L 51.31,32.72 Z" fill="#D4A574" stroke="#1a1a1a" stroke-width="2"/>
  <path id="cell_101" d="M 136.27,51.38 L 124.73,24.96 L 122.67,24.35 L 115.93,24.58 L 116.15,43.46 L 121.94,52.91 L 136.27,51.38 Z" fill="#C4956A" stroke="#1a1a1a" stroke-width="2"/>
  <path id="cell_102" d="M 90.78,57.58 L 99.86,25.70 L 77.91,29.76 L 63.59,39.15 L 87.97,59.96 L 89.84,59.55 L 90.78,57.58 Z" fill="#B8860B" stroke="#1a1a1a" stroke-width="2"/>
</svg>